<svg xmlns="http://www.w3.org/2000/svg" version="1.1" xmlns:xlink="http://www.w3.org/1999/xlink" xmlns:svgjs="http://svgjs.dev/svgjs" width="2000" height="393" viewBox="0 0 2000 393"><g transform="matrix(1,0,0,1,-1.2121212085628486,-0.8770754461850174)"><svg viewBox="0 0 396 78" data-background-color="#091627" preserveAspectRatio="xMidYMid meet" height="393" width="2000" xmlns="http://www.w3.org/2000/svg" xmlns:xlink="http://www.w3.org/1999/xlink"><g id="tight-bounds" transform="matrix(1,0,0,1,0.23999999929543492,0.17407604275427957)"><svg viewBox="0 0 395.52 77.65184791449141" height="77.65184791449141" width="395.52"><g><svg viewBox="0 0 534.7618734935879 104.98899593191896" height="77.65184791449141" width="395.52"><g transform="matrix(1,0,0,1,139.24187349358797,23.475980571841472)"><svg viewBox="0 0 395.52 58.03703478823602" height="58.03703478823602" width="395.52"><g id="textblocktransform"><svg viewBox="0 0 395.52 58.03703478823602" height="58.03703478823602" width="395.52" id="textblock"><g><svg viewBox="0 0 395.52 58.03703478823602" height="58.03703478823602" width="395.52"><g transform="matrix(1,0,0,1,0,0)"><svg width="395.52" viewBox="1.15 -41.16 282.33695652037704 41.433375" height="58.03703478823602" data-palette-color="#fffff5"><path d="M6.15-9.5L6.15-9.5 5.93-7.62Q5.93-4.66 7.91-3.59L7.91-3.59Q8.59-3.22 9.55-3.22 10.5-3.22 11.25-3.55 12.01-3.88 12.5-4.42L12.5-4.42Q13.53-5.52 13.53-6.96 13.53-8.4 12.94-9.57 12.35-10.74 11.47-11.91L11.47-11.91 9.52-14.31Q7.15-17.14 6.35-19.47 5.54-21.8 5.54-23.75 5.54-25.71 6.02-27.45 6.49-29.2 7.35-30.77 8.2-32.35 9.4-33.67 10.6-34.99 12.06-35.94L12.06-35.94Q15.11-37.99 18.12-37.99 21.12-37.99 22.8-37.16 24.49-36.33 25.51-35.06L25.51-35.06Q27.42-32.67 27.42-29.27L27.42-29.27Q27.42-26.12 25.63-23.34L25.63-23.34Q24-20.8 21.97-20.12L21.97-20.12Q21.53-19.9 20.76-19.9 20-19.9 19.47-20.13 18.95-20.36 18.55-20.75L18.55-20.75Q17.7-21.61 17.7-22.61L17.7-22.61Q17.7-23.29 18.12-23.51L18.12-23.51Q19.97-24.51 21.34-26.42L21.34-26.42Q22.83-28.49 22.9-30.55 22.97-32.62 21.91-33.61 20.85-34.59 19.09-34.59 17.33-34.59 15.92-33.8 14.5-33.01 13.48-31.67L13.48-31.67Q11.28-28.78 11.28-24.85L11.28-24.85Q11.28-22.24 13.09-19.34L13.09-19.34Q13.84-18.09 14.73-16.88 15.63-15.67 16.41-14.4L16.41-14.4Q18.19-11.45 18.19-9.11 18.19-6.76 17.35-5.15 16.5-3.54 15.11-2.34L15.11-2.34Q12.11 0.24 8.28 0.24L8.28 0.24Q4.66 0.24 2.71-1.9L2.71-1.9Q1.15-3.64 1.15-5.66L1.15-5.66Q1.15-7.86 2.39-9.38L2.39-9.38Q3.34-10.52 4.22-10.74L4.22-10.74Q6.15-11.25 6.15-9.5ZM27.71-1.66Q26.68-2.64 26.1-4.14 25.51-5.64 25.49-7.69 25.46-9.74 25.99-11.84 26.51-13.94 27.48-15.89 28.44-17.85 29.79-19.56 31.15-21.26 32.79-22.53L32.79-22.53Q36.35-25.27 40.18-25.27L40.18-25.27Q45.21-25.27 46.99-20.85L46.99-20.85Q48.26-17.65 47.14-13.11L47.14-13.11Q46.12-8.94 43.38-5.44L43.38-5.44Q40.67-1.95 36.98-0.49L36.98-0.49Q35.13 0.24 33.33 0.24 31.54 0.24 30.14-0.22 28.73-0.68 27.71-1.66ZM32.37-13.5Q31.64-11.69 31.21-9.79 30.78-7.89 30.81-6.19 30.83-4.49 31.33-3.53 31.83-2.56 32.96-2.56 34.08-2.56 35.17-3.33 36.25-4.1 37.28-5.37 38.3-6.64 39.21-8.3 40.11-9.96 40.79-11.77L40.79-11.77Q42.28-15.7 42.23-18.75L42.23-18.75Q42.23-21.44 41.14-22.17L41.14-22.17Q40.7-22.46 39.9-22.46 39.11-22.46 38.08-21.74 37.06-21.02 36.03-19.8 35.01-18.58 34.06-16.94 33.1-15.31 32.37-13.5ZM50.97-8.42L50.97-8.42Q51.02-10.55 51.64-12.66 52.27-14.77 53.3-16.65 54.34-18.53 55.77-20.12 57.2-21.7 58.88-22.85L58.88-22.85Q62.4-25.27 66.28-25.27L66.28-25.27Q70.28-25.27 71.72-22.07L71.72-22.07Q72.24-20.92 72.2-19.47 72.16-18.02 71.72-16.81 71.28-15.6 70.62-14.65L70.62-14.65Q69.14-12.5 67.62-12.5L67.62-12.5Q65.94-12.5 65.13-13.43L65.13-13.43Q64.42-14.23 64.69-15.31L64.69-15.31Q64.77-15.63 65.13-15.88 65.5-16.14 66.06-16.7L66.06-16.7Q67.65-18.36 67.72-20.58L67.72-20.58Q67.77-22.09 65.86-22.09L65.86-22.09Q63.81-22.09 61.57-19.8L61.57-19.8Q58.3-16.46 56.95-11.23L56.95-11.23Q55.78-6.69 57.39-4.59L57.39-4.59Q58.34-3.37 59.98-3.37L59.98-3.37Q62.74-3.37 65.3-5.32L65.3-5.32Q66.08-5.93 66.57-6.57 67.06-7.2 67.48-7.2 67.89-7.2 68.17-6.8 68.45-6.4 68.45-5.76L68.45-5.76Q68.45-4.32 67.16-2.93L67.16-2.93Q63.84 0.24 59.17 0.24L59.17 0.24Q55.2 0.24 53.02-2.03L53.02-2.03Q50.87-4.27 50.97-8.42ZM87.61-30.99Q87.08-30.42 86.39-30.07 85.71-29.71 84.95-29.63 84.2-29.54 83.53-29.86 82.85-30.18 82.37-30.76L82.37-30.76Q81.32-31.98 81.32-33.23 81.32-34.47 81.72-35.1 82.12-35.72 82.73-36.11L82.73-36.11Q83.9-36.87 84.94-36.87 85.98-36.87 86.55-36.72 87.13-36.57 87.61-36.23L87.61-36.23Q88.81-35.42 88.81-34.27 88.81-33.11 88.48-32.34 88.15-31.57 87.61-30.99ZM82.61-4.57L82.61-4.57Q83.24-4.57 83.24-3.74L83.24-3.74Q83.24-2.64 82.24-1.46L82.24-1.46Q80.78 0.24 78.31 0.24L78.31 0.24Q75.48 0.24 74.43-2.05L74.43-2.05Q74.04-2.86 74.04-4 74.04-5.15 74.44-6.56 74.85-7.96 75.44-9.51 76.04-11.06 76.75-12.65L76.75-12.65 78.04-15.72Q79.46-19.17 79.46-20.26 79.46-21.36 79.23-21.72 79-22.07 78.73-22.27L78.73-22.27 78.24-22.61Q78-22.78 78-23.21 78-23.63 78.33-24.02 78.65-24.41 79.19-24.71L79.19-24.71Q80.29-25.27 81.76-25.27L81.76-25.27Q85.34-25.27 85.34-23.39L85.34-23.39Q85.34-21.19 84.2-18.37 83.05-15.55 82.24-13.82L82.24-13.82 80.78-10.45Q79.17-6.74 79.17-5.1L79.17-5.1Q79.17-4.03 80.24-4.03L80.24-4.03Q81.29-4.03 81.83-4.3 82.37-4.57 82.61-4.57ZM107.44-6.49L107.44-6.49Q107.44-4.25 109.02-4.25L109.02-4.25Q110.12-4.25 110.84-4.59 111.56-4.93 111.81-4.93L111.81-4.93Q112.32-4.93 112.32-4.39L112.32-4.39Q112.32-2.29 110.12-0.78L110.12-0.78Q107.8 0.81 105.39 0L105.39 0Q103.8-0.56 103.04-2.42L103.04-2.42Q102.68-3.37 102.68-4.15L102.68-4.15Q102.68-5.42 102.92-6.84L102.92-6.84Q100.65-2.2 97.28-0.44L97.28-0.44Q95.94 0.24 94.42 0.24 92.91 0.24 91.8-0.38 90.69-1 89.91-2.1L89.91-2.1Q88.32-4.39 88.47-7.86L88.47-7.86Q88.61-12.21 91.03-16.38L91.03-16.38Q93.25-20.29 96.65-22.75L96.65-22.75Q100.04-25.27 102.99-25.27 105.95-25.27 107.75-22.56L107.75-22.56Q109.44-25.27 110.73-25.27L110.73-25.27Q112.12-25.27 112.83-24.76L112.83-24.76Q114.17-23.78 113.78-23.05L113.78-23.05Q107.66-10.5 107.49-7.42L107.49-7.42Q107.44-6.98 107.44-6.49ZM93.89-6.4L93.89-6.4Q93.89-3.47 95.77-3.47L95.77-3.47Q97.21-3.47 99.31-5.91L99.31-5.91Q102.38-9.5 104.75-15.58L104.75-15.58Q105.51-17.48 106.02-19.38L106.02-19.38Q105.92-21.04 104.63-21.83L104.63-21.83Q104.19-22.09 103.32-22.09 102.46-22.09 101.3-21.46 100.14-20.83 99.05-19.73 97.96-18.63 97.02-17.13 96.08-15.63 95.38-13.87L95.38-13.87Q93.89-10.11 93.89-6.4ZM117-0.98Q116.39-1.61 116.02-2.6 115.64-3.59 115.64-4.9 115.64-6.2 116.24-8.4 116.83-10.6 117.76-13.4L117.76-13.4 119.81-19.48Q124.18-32.18 124.87-39.11L124.87-39.11Q125.09-41.16 126.87-41.16L126.87-41.16Q127.99-41.16 128.72-40.63L128.72-40.63Q130.14-39.55 130.09-38.23 130.04-36.91 129.63-35.02 129.21-33.13 128.55-30.9 127.89-28.66 127.04-26.17L127.04-26.17 123.67-16.26Q120.76-7.81 120.76-5.35L120.76-5.35Q120.76-4.03 121.84-4.03L121.84-4.03Q122.86-4.03 123.71-4.47 124.55-4.91 124.79-4.91L124.79-4.91Q125.3-4.91 125.3-4.39L125.3-4.39Q125.3-2.22 123.08-0.76L123.08-0.76Q121.59 0.24 120.36 0.24 119.13 0.24 118.37-0.05 117.61-0.34 117-0.98ZM149.74-9.96L152.55-17.94Q149.55-18.21 146.68-18.21 143.81-18.21 140.73-17.85L140.73-17.85Q136.85-7.01 132.41-2.34L132.41-2.34Q130.77-0.61 129.01 0L129.01 0Q128.57 0.17 128.12 0.17 127.67 0.17 127.32 0.01 126.96-0.15 126.74-0.39L126.74-0.39Q126.23-0.88 126.23-1.43 126.23-1.98 126.6-2.25L126.6-2.25Q130.48-5.03 134.82-16.72L134.82-16.72Q134.63-16.67 134.46-16.63 134.29-16.58 134.04-16.5 133.8-16.43 133.46-16.65 133.11-16.87 132.85-17.24L132.85-17.24Q132.21-18.12 132.68-18.53L132.68-18.53Q133.53-19.29 135.95-19.97L135.95-19.97Q139.22-30.1 139.34-34.33L139.34-34.33Q138.34-34.28 137.49-33.79L137.49-33.79 135.63-32.74Q134.87-32.32 133.63-33.4L133.63-33.4Q132.41-34.42 132.55-35.35L132.55-35.35Q132.72-36.74 136.46-37.65L136.46-37.65Q137.78-37.96 138.53-37.96 139.29-37.96 140.04-37.93 140.78-37.89 141.39-37.74L141.39-37.74Q143.83-37.16 144.39-35.64L144.39-35.64Q144.64-34.96 144.64-34 144.64-33.03 144.44-31.73 144.25-30.42 143.88-28.76L143.88-28.76Q143.1-25.15 141.81-21.04L141.81-21.04Q147.13-21.68 152.82-21.68L152.82-21.68 153.87-21.68 155.21-25.68Q157.46-32.45 157.97-35.91L157.97-35.91Q158.29-37.96 160.02-37.96L160.02-37.96Q161.14-37.96 161.87-37.4L161.87-37.4Q163.24-36.4 163.19-35.24 163.14-34.08 162.78-32.64 162.41-31.2 161.83-29.42 161.24-27.64 160.48-25.59L160.48-25.59 158.94-21.46 159.53-21.41Q159.9-21.36 160.23-21.33 160.56-21.29 160.8-21.19L160.8-21.19Q161.31-21 161.31-20.52 161.31-20.04 161.03-19.52 160.75-18.99 160.24-18.53L160.24-18.53Q158.99-17.41 157.36-17.36L157.36-17.36Q154.38-9.52 153.89-7.75 153.4-5.98 153.4-5.35L153.4-5.35Q153.4-4.03 154.45-4.03L154.45-4.03Q155.43-4.03 156.04-4.35L156.04-4.35 156.92-4.79Q157.19-4.91 157.43-4.91L157.43-4.91Q157.94-4.91 157.94-4.39L157.94-4.39Q157.94-2.22 155.43-0.76L155.43-0.76Q153.77 0.22 151.99 0.22L151.99 0.22Q149.5 0.22 148.52-2L148.52-2Q148.18-2.76 148.18-3.44L148.18-3.44Q148.18-5.03 148.67-6.65 149.15-8.28 149.74-9.96L149.74-9.96ZM181.92-6.49L181.92-6.49Q181.92-4.25 183.5-4.25L183.5-4.25Q184.6-4.25 185.32-4.59 186.04-4.93 186.29-4.93L186.29-4.93Q186.8-4.93 186.8-4.39L186.8-4.39Q186.8-2.29 184.6-0.78L184.6-0.78Q182.28 0.81 179.87 0L179.87 0Q178.28-0.56 177.52-2.42L177.52-2.42Q177.16-3.37 177.16-4.15L177.16-4.15Q177.16-5.42 177.4-6.84L177.4-6.84Q175.13-2.2 171.76-0.44L171.76-0.44Q170.42 0.24 168.9 0.24 167.39 0.24 166.28-0.38 165.17-1 164.39-2.1L164.39-2.1Q162.8-4.39 162.95-7.86L162.95-7.86Q163.09-12.21 165.51-16.38L165.51-16.38Q167.73-20.29 171.13-22.75L171.13-22.75Q174.52-25.27 177.47-25.27 180.43-25.27 182.23-22.56L182.23-22.56Q183.92-25.27 185.21-25.27L185.21-25.27Q186.6-25.27 187.31-24.76L187.31-24.76Q188.65-23.78 188.26-23.05L188.26-23.05Q182.14-10.5 181.96-7.42L181.96-7.42Q181.92-6.98 181.92-6.49ZM168.37-6.4L168.37-6.4Q168.37-3.47 170.25-3.47L170.25-3.47Q171.69-3.47 173.79-5.91L173.79-5.91Q176.86-9.5 179.23-15.58L179.23-15.58Q179.99-17.48 180.5-19.38L180.5-19.38Q180.4-21.04 179.11-21.83L179.11-21.83Q178.67-22.09 177.8-22.09 176.94-22.09 175.78-21.46 174.62-20.83 173.53-19.73 172.44-18.63 171.5-17.13 170.56-15.63 169.86-13.87L169.86-13.87Q168.37-10.11 168.37-6.4ZM190.36-0.59Q189.87-0.95 189.58-1.4 189.29-1.86 189.26-2.19 189.24-2.51 189.4-2.99 189.56-3.47 189.82-4.15L189.82-4.15Q194.8-16.41 194.8-20.61L194.8-20.61Q194.73-21.78 194-22.27L194-22.27 193.51-22.61Q193.29-22.78 193.28-23.21 193.27-23.63 193.58-24.02 193.9-24.41 194.41-24.71L194.41-24.71Q195.46-25.27 196.57-25.27 197.69-25.27 198.31-25.02 198.93-24.78 199.37-24.37L199.37-24.37Q200.3-23.49 200.31-22.51 200.32-21.53 200.09-20.53 199.86-19.53 199.54-18.57 199.22-17.6 198.91-16.74 198.59-15.87 198.49-15.45L198.49-15.45Q198.3-14.6 198.34-14.38L198.34-14.38Q198.93-14.89 199.05-15.38L199.05-15.38 200-17.19Q203.18-22.9 206.21-24.76L206.21-24.76Q207.08-25.27 208.32-25.27 209.55-25.27 210.31-24.4 211.06-23.54 211.1-22.49 211.14-21.44 210.95-20.74 210.77-20.04 210.4-19.43L210.4-19.43Q209.6-18.07 208.45-18.07L208.45-18.07Q208.13-18.07 207.87-18.29L207.87-18.29 207.33-18.75Q206.52-19.46 205.78-19.46 205.03-19.46 203.97-18.48 202.91-17.5 201.76-15.97L201.76-15.97Q197.9-10.86 195.46-4.54L195.46-4.54 194.39-1.71Q193.97-0.66 193.66-0.21 193.34 0.24 192.72 0.24 192.09 0.24 191.47 0.01 190.85-0.22 190.36-0.59ZM210.89-6.93L210.89-6.93Q210.89-8.35 211.1-9.64 211.31-10.94 211.64-12.26 211.96-13.57 212.38-14.89L212.38-14.89 215.11-23.24Q218.36-33.4 219.19-39.11L219.19-39.11Q219.46-41.16 221.19-41.16L221.19-41.16Q222.22-41.16 222.93-40.63L222.93-40.63Q224.22-39.58 224.18-38.39 224.15-37.21 223.84-35.75 223.54-34.3 223.06-32.59 222.58-30.88 221.97-29L221.97-29Q220.34-24.17 219.53-22.02L219.53-22.02 218.14-18.38Q220.27-21.68 221.61-22.9L221.61-22.9Q224.29-25.27 227.2-25.27L227.2-25.27Q231.47-25.27 232.89-20.8L232.89-20.8Q233.35-19.26 233.35-16.97 233.35-14.67 232.68-12.41 232.01-10.16 230.86-8.22 229.71-6.27 228.19-4.71 226.66-3.15 224.98-2.05L224.98-2.05Q221.41 0.24 218.07 0.24L218.07 0.24Q214.7 0.24 212.77-1.81L212.77-1.81Q210.89-3.86 210.89-6.93ZM217.73-2.93L217.73-2.93Q220.02-2.93 222.39-4.98L222.39-4.98Q226-8.11 227.25-13.92L227.25-13.92Q227.66-15.82 227.66-17.88 227.66-19.95 227.2-20.78 226.74-21.61 225.77-21.61 224.81-21.61 223.76-20.83 222.71-20.04 221.56-18.76 220.41-17.48 219.29-15.81 218.17-14.14 217.26-12.35L217.26-12.35Q215.29-8.42 215.29-5.68 215.29-2.93 217.73-2.93ZM239.21-1.66Q238.18-2.64 237.6-4.14 237.01-5.64 236.99-7.69 236.96-9.74 237.49-11.84 238.01-13.94 238.98-15.89 239.94-17.85 241.3-19.56 242.65-21.26 244.29-22.53L244.29-22.53Q247.85-25.27 251.68-25.27L251.68-25.27Q256.71-25.27 258.5-20.85L258.5-20.85Q259.77-17.65 258.64-13.11L258.64-13.11Q257.62-8.94 254.88-5.44L254.88-5.44Q252.17-1.95 248.49-0.49L248.49-0.49Q246.63 0.24 244.84 0.24 243.04 0.24 241.64-0.22 240.23-0.68 239.21-1.66ZM243.87-13.5Q243.14-11.69 242.71-9.79 242.28-7.89 242.31-6.19 242.33-4.49 242.83-3.53 243.33-2.56 244.46-2.56 245.58-2.56 246.67-3.33 247.75-4.1 248.78-5.37 249.8-6.64 250.71-8.3 251.61-9.96 252.29-11.77L252.29-11.77Q253.78-15.7 253.73-18.75L253.73-18.75Q253.73-21.44 252.64-22.17L252.64-22.17Q252.2-22.46 251.4-22.46 250.61-22.46 249.58-21.74 248.56-21.02 247.53-19.8 246.51-18.58 245.56-16.94 244.6-15.31 243.87-13.5ZM262.74-0.59Q262.25-0.95 261.96-1.4 261.67-1.86 261.64-2.19 261.62-2.51 261.78-2.99 261.94-3.47 262.2-4.15L262.2-4.15Q267.18-16.41 267.18-20.61L267.18-20.61Q267.11-21.78 266.38-22.27L266.38-22.27 265.89-22.61Q265.67-22.78 265.66-23.21 265.65-23.63 265.96-24.02 266.28-24.41 266.79-24.71L266.79-24.71Q267.84-25.27 268.95-25.27 270.07-25.27 270.69-25.02 271.31-24.78 271.75-24.37L271.75-24.37Q272.68-23.49 272.69-22.51 272.7-21.53 272.47-20.53 272.24-19.53 271.92-18.57 271.6-17.6 271.29-16.74 270.97-15.87 270.87-15.45L270.87-15.45Q270.68-14.6 270.72-14.38L270.72-14.38Q271.31-14.89 271.43-15.38L271.43-15.38 272.38-17.19Q275.56-22.9 278.59-24.76L278.59-24.76Q279.46-25.27 280.7-25.27 281.93-25.27 282.69-24.4 283.44-23.54 283.48-22.49 283.52-21.44 283.33-20.74 283.15-20.04 282.79-19.43L282.79-19.43Q281.98-18.07 280.83-18.07L280.83-18.07Q280.51-18.07 280.25-18.29L280.25-18.29 279.71-18.75Q278.9-19.46 278.16-19.46 277.41-19.46 276.35-18.48 275.29-17.5 274.14-15.97L274.14-15.97Q270.29-10.86 267.84-4.54L267.84-4.54 266.77-1.71Q266.35-0.66 266.04-0.21 265.72 0.24 265.1 0.24 264.47 0.24 263.85 0.01 263.23-0.22 262.74-0.59Z" opacity="1" transform="matrix(1,0,0,1,0,0)" fill="#fffff5" class="wordmark-text-0" data-fill-palette-color="primary" id="text-0"></path></svg></g></svg></g></svg></g></svg></g><g><svg viewBox="0 0 104.98899593191896 104.98899593191896" height="104.98899593191896" width="104.98899593191896"><g><svg viewBox="0 0 104.98899593191896 104.98899593191896" height="104.98899593191896" width="104.98899593191896"><g transform="matrix(1,0,0,1,27.748354308150564,32.23610224902174)"><svg viewBox="0 0 49.49228731561784 40.516791433875476" height="40.516791433875476" width="49.49228731561784"><g><svg xmlns="http://www.w3.org/2000/svg" xmlns:xlink="http://www.w3.org/1999/xlink" version="1.1" x="0" y="0" viewBox="4.3 11.799999999999997 82.45296025615374 67.50000000000001" style="enable-background:new 0 0 91 91;" xml:space="preserve" height="40.516791433875476" width="49.49228731561784" class="icon-cg-0" data-fill-palette-color="accent" id="cg-0"><g fill="#877eff" data-fill-palette-color="accent"><path d="M66.8 28.6c1.9 0 3.4-1.5 3.4-3.4 0-1.9-1.5-3.4-3.4-3.4-1.9 0-3.4 1.5-3.4 3.4C63.4 27.1 64.9 28.6 66.8 28.6zM66.8 23.2c1.1 0 2 0.9 2 2 0 1.1-0.9 2-2 2-1.1 0-2-0.9-2-2C64.8 24.1 65.7 23.2 66.8 23.2z" fill="#877eff" data-fill-palette-color="accent"></path><path d="M55.7 36c-1.9 0-3.4 1.5-3.4 3.4 0 1.9 1.5 3.4 3.4 3.4 1.9 0 3.4-1.5 3.4-3.4C59.1 37.5 57.5 36 55.7 36zM55.7 41.4c-1.1 0-2-0.9-2-2 0-1.1 0.9-2 2-2s2 0.9 2 2C57.7 40.5 56.8 41.4 55.7 41.4z" fill="#877eff" data-fill-palette-color="accent"></path><path d="M26.3 25.5c1.2 0.3 2.6 0.6 4.3 0.9 0 0 0.1 0 0.1 0 0.3 0 0.5-0.1 0.6-0.4 0.8-1.5 2.3-2.4 4-2.3 0.1 0 0.1 0 0.2 0 0.3 0 0.6-0.2 0.7-0.5 1-2.6 2.1-4.8 3.5-6.3 0.2-0.2 0.2-0.6 0.1-0.8-0.2-0.3-0.5-0.4-0.8-0.3-5.1 1.3-9.7 4.4-13 8.6-0.1 0.2-0.2 0.4-0.1 0.7S26.1 25.4 26.3 25.5zM37.3 17.7c-0.8 1.3-1.6 2.8-2.2 4.5-1.9 0.1-3.6 1.1-4.7 2.6-1-0.2-1.9-0.4-2.7-0.5C30.3 21.4 33.7 19.1 37.3 17.7z" fill="#877eff" data-fill-palette-color="accent"></path><path d="M62.5 27.6c-2.3 0.5-4.4 0.9-6.3 1.2-0.2 0-0.4 0.1-0.5 0.3-0.1 0.2-0.2 0.3-0.1 0.5 0.3 1.4 0.5 3 0.6 4.9 0 0.3 0.2 0.5 0.5 0.6 1.6 0.4 2.8 1.7 3.2 3.3 0.1 0.3 0.4 0.5 0.7 0.5h8.1c0.2 0 0.4-0.1 0.5-0.2 0.1-0.1 0.2-0.3 0.2-0.5-0.2-2.7-0.8-5.4-1.9-8-0.1-0.3-0.4-0.4-0.6-0.4-0.1 0-0.1 0-0.2 0-1.4 0-2.7-0.7-3.6-1.8C63 27.6 62.8 27.5 62.5 27.6zM66.5 31.1c0.8 2.1 1.4 4.2 1.6 6.4h-6.9c-0.6-1.7-1.9-3.1-3.6-3.7-0.1-1.4-0.3-2.7-0.5-3.8 1.6-0.2 3.3-0.6 5.2-1C63.4 30.3 64.9 31 66.5 31.1z" fill="#877eff" data-fill-palette-color="accent"></path><path d="M38.1 24.7c0.8 0.6 1.3 1.4 1.5 2.3 0.1 0.3 0.3 0.5 0.6 0.5 1.7 0.1 3.5 0.2 5.2 0.2 2.4 0 4.8-0.1 7.1-0.3 0.2 0 0.4-0.1 0.5-0.3 0.1-0.2 0.2-0.4 0.1-0.6-1.8-6.7-4.9-10.8-8.1-10.8-2.7 0-5.4 3.1-7.2 8.2C37.8 24.2 37.9 24.5 38.1 24.7zM45.1 17.1c1.9 0 4.6 2.8 6.5 9-3.5 0.3-7.1 0.3-10.8 0.1-0.3-0.9-0.8-1.6-1.5-2.2C41 19.7 43.2 17.1 45.1 17.1z" fill="#877eff" data-fill-palette-color="accent"></path><path d="M38.7 28.2c0-1.9-1.5-3.4-3.4-3.4-1.9 0-3.4 1.5-3.4 3.4s1.5 3.4 3.4 3.4C37.2 31.6 38.7 30.1 38.7 28.2zM35.3 30.2c-1.1 0-2-0.9-2-2s0.9-2 2-2c1.1 0 2 0.9 2 2S36.4 30.2 35.3 30.2z" fill="#877eff" data-fill-palette-color="accent"></path><path d="M21.7 35.2c1.4 0.5 2.5 1.7 2.8 3.2 0.1 0.3 0.4 0.5 0.7 0.5H33c0.4 0 0.7-0.3 0.7-0.7 0-1.6 0.2-3.3 0.4-5.1 0-0.3-0.1-0.6-0.4-0.7-1.5-0.6-2.6-2-2.8-3.6 0-0.3-0.3-0.5-0.6-0.6-2-0.4-3.8-0.8-5.5-1.2-0.3-0.1-0.6 0.1-0.8 0.3-1.3 2.2-2.2 4.6-2.7 7.1C21.2 34.7 21.4 35 21.7 35.2zM24.9 28.4c1.4 0.4 2.9 0.7 4.6 1 0.4 1.7 1.5 3.2 3.1 4-0.2 1.4-0.3 2.8-0.3 4.1h-6.6c-0.5-1.5-1.6-2.7-3-3.4C23.2 32.1 24 30.1 24.9 28.4z" fill="#877eff" data-fill-palette-color="accent"></path><path d="M55 26.5c0.1 0.3 0.4 0.5 0.7 0.5 0 0 0.1 0 0.1 0 1.8-0.2 3.7-0.6 6-1.1 0.3-0.1 0.6-0.4 0.5-0.8 0-0.6 0.1-1.3 0.4-1.9 0.1-0.3 0.1-0.6-0.1-0.8-3.2-3.3-7.2-5.7-11.5-6.8-0.3-0.1-0.6 0-0.8 0.3-0.2 0.3-0.1 0.6 0.1 0.8C52.3 19.1 53.9 22.4 55 26.5zM61.3 23.1c-0.2 0.5-0.3 1-0.4 1.5-1.8 0.4-3.3 0.7-4.8 0.9-0.9-3.1-2-5.8-3.4-7.9C56 18.8 58.9 20.7 61.3 23.1z" fill="#877eff" data-fill-palette-color="accent"></path><path d="M54.1 35.1c0.3-0.1 0.5-0.4 0.5-0.7-0.2-1.8-0.4-3.4-0.6-4.8-0.1-0.4-0.4-0.6-0.8-0.6-2.7 0.3-5.4 0.4-8 0.4-1.4 0-3-0.1-4.9-0.2-0.3 0-0.6 0.2-0.7 0.4-0.5 1.4-1.7 2.4-3.1 2.8-0.3 0.1-0.5 0.3-0.5 0.6-0.2 1.8-0.3 3.5-0.4 5 0 0.2 0.1 0.4 0.2 0.5 0.1 0.1 0.3 0.2 0.5 0.2h14.4c0.3 0 0.6-0.2 0.7-0.5C51.6 36.9 52.7 35.7 54.1 35.1zM50.1 37.5H36.9c0.1-1.2 0.1-2.4 0.3-3.7 1.5-0.5 2.7-1.6 3.4-3 1.7 0.1 3.2 0.2 4.5 0.2 2.5 0 5-0.1 7.5-0.3 0.2 1 0.3 2.2 0.5 3.5C51.7 34.7 50.6 36 50.1 37.5z" fill="#877eff" data-fill-palette-color="accent"></path><path d="M20.1 42.8c1.9 0 3.4-1.5 3.4-3.4 0-1.9-1.5-3.4-3.4-3.4-1.9 0-3.4 1.5-3.4 3.4C16.7 41.2 18.2 42.8 20.1 42.8zM20.1 37.4c1.1 0 2 0.9 2 2 0 1.1-0.9 2-2 2s-2-0.9-2-2C18.1 38.3 19 37.4 20.1 37.4z" fill="#877eff" data-fill-palette-color="accent"></path><path d="M14.2 39.4c0 2.4 1.5 4.6 3.7 5.5 1.6 8.7 7.3 16.3 15.2 20.1 0.2 0.1 0.4 0.1 0.6 0 0 0.2 0.2 0.4 0.4 0.5 3.5 1.5 7.1 2.3 10.9 2.3 3.8 0 7.4-0.8 10.9-2.3 0.2-0.1 0.4-0.3 0.4-0.5 0.1 0.1 0.2 0.1 0.3 0.1 0.1 0 0.2 0 0.3-0.1 9.6-4.6 15.7-14.5 15.7-25.2 0-3.5-0.7-7-1.9-10.3 1.2-1.1 1.9-2.7 1.9-4.3 0-3.3-2.7-5.9-5.9-5.9-0.8 0-1.6 0.2-2.4 0.5-5.2-5.2-12-8-19.3-8-13 0-24.2 9.2-27 22C15.8 34.7 14.2 36.9 14.2 39.4zM35.2 64.4l0.4-6.3c0.1-2 1.7-2.5 2.3-2.6 0.1 0 0.2 0 0.3 0 0.1 0 0.2 0 0.3-0.1l-0.4 0.3c-0.2 0.2-0.3 0.4-0.3 0.6 0 0.2 0.2 0.4 0.4 0.5l1.9 0.9-0.8 1.3c-0.1 0.2-0.1 0.4 0 0.7l3 6.4C39.9 65.9 37.5 65.3 35.2 64.4zM45.4 66.3c-0.1-0.1-0.3-0.2-0.4-0.2l-0.1 0c-0.1 0-0.2 0-0.2 0-0.2 0-0.3 0.1-0.4 0.2 0 0-0.1 0-0.1 0l0.5-9.4c0-0.2-0.1-0.4-0.3-0.6l-0.1-0.1 0.3-0.9h1l0.3 0.9-0.1 0.1c-0.2 0.1-0.3 0.4-0.3 0.6l0.5 9.4C45.8 66.3 45.6 66.3 45.4 66.3zM45 53.2c-2.4 0-4.4-2.3-4.4-5.1 0-2.8 2-5.1 4.4-5.1 2.4 0 4.4 2.3 4.4 5.1C49.4 50.9 47.4 53.2 45 53.2zM47.7 66.2l3-6.4c0.1-0.2 0.1-0.5 0-0.7l-0.8-1.3 1.9-0.9c0.2-0.1 0.4-0.3 0.4-0.5s-0.1-0.5-0.3-0.6l-0.4-0.3c0.2 0 0.4 0.1 0.5 0.1l0.2 0c1.1 0.2 2.3 1 2.4 2.6l0.4 5.2 0.1 1.1C52.6 65.3 50.2 66 47.7 66.2zM18.9 35c0.3-0.1 0.4-0.3 0.5-0.5 2.5-12.3 13.3-21.3 25.7-21.3 7.1 0 13.7 2.8 18.7 7.9 0.2 0.2 0.6 0.3 0.8 0.1 0.7-0.4 1.4-0.6 2.2-0.6 2.5 0 4.5 2 4.5 4.5 0 1.4-0.6 2.7-1.8 3.6-0.2 0.2-0.3 0.5-0.2 0.8 1.3 3.2 2 6.7 2 10.2 0 10.1-5.9 19.5-14.9 23.9 0 0-0.1 0-0.1 0.1L56 58c-0.2-2-1.6-3.6-3.6-3.9l-0.2 0c-0.4-0.1-1.6-0.2-2.4-0.3v0c0 0-0.1 0-0.1 0-0.1 0-0.2 0-0.3 0-0.3 0-0.6 0.3-0.7 0.6-0.1 0.3 0 0.6 0.2 0.7l1.3 1.1-1.6 0.8c-0.2 0.1-0.3 0.2-0.4 0.4-0.1 0.2 0 0.4 0.1 0.6l1 1.7-2 4.2-0.4-6.6 0.2-0.2c0.2-0.2 0.3-0.5 0.2-0.8l-0.6-1.9c0 0 0 0 0-0.1 2.4-0.8 4.1-3.3 4.1-6.2 0-2.8-1.5-5.1-3.7-6.1h3.3c1 2 3 3.2 5.3 3.2 2.2 0 4.2-1.2 5.3-3.2h7.2c-0.4 4.6-2.2 8.9-5.1 12.5-0.2-0.1-0.4-0.1-0.7-0.2-0.3 0-1.6-0.2-2.2-0.3l-0.7 0c1.3-0.7 2.3-2.3 2.3-4.1 0-2.5-1.7-4.5-3.9-4.5-2.1 0-3.9 2-3.9 4.5 0 1.8 0.9 3.3 2.2 4 0 0 0 0 0 0-0.2 0-0.3 0.1-0.4 0.2-0.1 0.1-0.2 0.3-0.2 0.5 0 0.3 0.3 0.6 0.6 0.6 0 0 0.1 0 0.1 0h1.5l2.4 0.1c0.5 0 1.8 0.2 2.2 0.3 0.2 0 0.5 0.1 0.7 0.2 0.3 0.1 0.6 0.1 0.8-0.2 3.4-4.1 5.4-9.1 5.8-14.4 0-0.2-0.1-0.4-0.2-0.5-0.1-0.1-0.3-0.2-0.5-0.2h-8.4c-0.3 0-0.5 0.2-0.6 0.4-0.7 1.7-2.3 2.8-4.2 2.8s-3.5-1.1-4.2-2.8c-0.1-0.3-0.4-0.4-0.6-0.4H24.9c-0.3 0-0.5 0.2-0.6 0.4-0.5 1.2-1.5 2.1-2.7 2.5-0.3 0.1-0.5 0.4-0.5 0.8 0.8 4.2 2.7 8.2 5.4 11.4 0.1 0.2 0.3 0.2 0.5 0.2 0.1 0 0.2 0 0.3-0.1 0.2-0.1 0.4-0.2 0.8-0.2 0.3 0 1.6-0.2 2.1-0.3l2.4-0.1 1.5 0c0 0 0 0 0 0 0.4 0 0.7-0.3 0.8-0.6 0-0.2-0.1-0.4-0.2-0.5 2-0.7 3.5-2.8 3.5-5.4 0-3.1-2.1-5.6-4.8-5.6-2.6 0-4.8 2.5-4.8 5.6 0 2.3 1.2 4.3 2.9 5.2l-1.4 0.1c-0.5 0-1.8 0.2-2.3 0.3-0.2 0-0.4 0.1-0.6 0.1-2.3-2.8-3.9-6.2-4.7-9.8 1.2-0.6 2.2-1.5 2.8-2.7H43c-2.2 0.9-3.7 3.3-3.7 6.1 0 2.9 1.7 5.4 4.1 6.2 0 0 0 0 0 0.1l-0.6 1.9c-0.1 0.3 0 0.6 0.2 0.8l0.2 0.2-0.4 6.6-2-4.2 1-1.7c0.1-0.2 0.1-0.4 0.1-0.6-0.1-0.2-0.2-0.3-0.4-0.4l-1.6-0.8 1.3-1.1c0.2-0.2 0.3-0.5 0.2-0.8-0.1-0.3-0.4-0.5-0.7-0.5l-0.4 0c0 0-0.1 0-0.1 0-0.6 0.1-1.6 0.2-2.2 0.3 0 0-0.1 0-0.1 0-2 0.3-3.5 1.8-3.6 3.9l-0.4 5.8c0 0 0 0-0.1-0.1-7.7-3.7-13.1-11-14.5-19.5 0-0.3-0.2-0.5-0.5-0.6-1.9-0.6-3.2-2.3-3.2-4.3C15.6 37.4 17 35.6 18.9 35zM57.9 53.1c-1.4 0-2.5-1.4-2.5-3.1 0-1.7 1.1-3.1 2.5-3.1 1.4 0 2.5 1.4 2.5 3.1C60.4 51.7 59.2 53.1 57.9 53.1zM33.3 53.1c-1.9 0-3.4-1.9-3.4-4.2 0-2.3 1.5-4.2 3.4-4.2 1.9 0 3.4 1.9 3.4 4.2C36.7 51.2 35.1 53.1 33.3 53.1z" fill="#877eff" data-fill-palette-color="accent"></path><path d="M74.9 31.3c0.4 0 0.8 0.1 1.1 0.1 0 0 0.1 0 0.1 0 0.3 0 0.6-0.3 0.7-0.6 0-0.4-0.2-0.7-0.6-0.8-0.4 0-0.8-0.1-1.2-0.1-0.4 0-0.7 0.3-0.8 0.6C74.2 30.9 74.5 31.3 74.9 31.3z" fill="#877eff" data-fill-palette-color="accent"></path><path d="M70.5 58c-0.6 0.5-1.3 0.9-1.9 1.4-0.3 0.2-0.4 0.7-0.2 1 0.1 0.2 0.4 0.3 0.6 0.3 0.1 0 0.3 0 0.4-0.1 0.7-0.5 1.3-0.9 2-1.4 0.3-0.2 0.4-0.7 0.1-1C71.3 57.8 70.8 57.7 70.5 58z" fill="#877eff" data-fill-palette-color="accent"></path><path d="M73.8 57c0.2 0 0.3-0.1 0.4-0.2 0.4-0.3 0.7-0.6 1.1-0.9 0.3-0.2 0.5-0.5 0.8-0.7 0.3-0.3 0.3-0.7 0.1-1-0.3-0.3-0.7-0.3-1-0.1-0.3 0.2-0.5 0.5-0.8 0.7-0.3 0.3-0.7 0.6-1 0.9-0.3 0.2-0.3 0.7-0.1 1C73.4 56.9 73.6 57 73.8 57z" fill="#877eff" data-fill-palette-color="accent"></path><path d="M65.7 61.4c-0.7 0.4-1.3 0.9-2 1.3-0.3 0.2-0.4 0.6-0.2 1 0.1 0.2 0.4 0.3 0.6 0.3 0.1 0 0.3 0 0.4-0.1 0.7-0.4 1.4-0.9 2-1.3 0.3-0.2 0.4-0.6 0.2-1C66.4 61.3 66 61.2 65.7 61.4z" fill="#877eff" data-fill-palette-color="accent"></path><path d="M9.9 76.3c-0.7-0.3-1.4-0.7-1.9-1.2-0.3-0.2-0.7-0.2-1 0.1-0.2 0.3-0.2 0.7 0.1 1 0.6 0.5 1.4 1 2.2 1.3 0.1 0 0.2 0.1 0.3 0.1 0.3 0 0.5-0.2 0.6-0.4C10.4 76.8 10.2 76.4 9.9 76.3z" fill="#877eff" data-fill-palette-color="accent"></path><path d="M78.2 53c0.2 0 0.4-0.1 0.5-0.2 0.6-0.6 1.1-1.2 1.7-1.8 0.3-0.3 0.2-0.7 0-1-0.3-0.3-0.7-0.2-1 0-0.5 0.6-1.1 1.1-1.6 1.7-0.3 0.3-0.3 0.7 0 1C77.9 52.9 78.1 53 78.2 53z" fill="#877eff" data-fill-palette-color="accent"></path><path d="M84.8 36c0.1 0.3 0.2 0.6 0.3 0.9 0.1 0.3 0.4 0.5 0.7 0.5 0.1 0 0.1 0 0.2 0 0.4-0.1 0.6-0.5 0.5-0.9-0.1-0.4-0.2-0.7-0.4-1.1-0.2-0.5-0.5-0.9-0.8-1.3-0.2-0.3-0.7-0.4-1-0.1-0.3 0.2-0.4 0.7-0.1 1C84.4 35.3 84.6 35.7 84.8 36z" fill="#877eff" data-fill-palette-color="accent"></path><path d="M86 39.6c-0.4-0.1-0.7 0.2-0.8 0.6-0.1 0.7-0.3 1.4-0.6 2.2-0.1 0.4 0 0.8 0.4 0.9 0.1 0 0.2 0 0.3 0 0.3 0 0.5-0.2 0.7-0.4 0.3-0.8 0.6-1.7 0.7-2.4C86.6 40 86.4 39.6 86 39.6z" fill="#877eff" data-fill-palette-color="accent"></path><path d="M33.1 75.8c-0.8 0.2-1.6 0.4-2.3 0.5-0.4 0.1-0.6 0.5-0.5 0.8 0.1 0.3 0.4 0.5 0.7 0.5 0 0 0.1 0 0.2 0 0.8-0.2 1.6-0.4 2.4-0.6 0.4-0.1 0.6-0.5 0.5-0.8C33.8 75.9 33.4 75.7 33.1 75.8z" fill="#877eff" data-fill-palette-color="accent"></path><path d="M81.8 48.3c0.1 0.1 0.3 0.1 0.4 0.1 0.2 0 0.4-0.1 0.6-0.3 0.5-0.7 1-1.4 1.4-2 0.2-0.3 0.1-0.8-0.2-1-0.3-0.2-0.8-0.1-1 0.2-0.4 0.6-0.8 1.3-1.3 1.9C81.4 47.6 81.5 48.1 81.8 48.3z" fill="#877eff" data-fill-palette-color="accent"></path><path d="M79.5 32.1c0.8 0.2 1.5 0.5 2.1 0.8 0.1 0.1 0.2 0.1 0.3 0.1 0.3 0 0.5-0.1 0.6-0.4 0.2-0.3 0-0.8-0.3-0.9-0.7-0.4-1.5-0.7-2.3-0.9-0.4-0.1-0.8 0.1-0.9 0.5S79.1 32 79.5 32.1z" fill="#877eff" data-fill-palette-color="accent"></path><path d="M38.8 74.1c-0.8 0.2-1.5 0.5-2.3 0.7-0.4 0.1-0.6 0.5-0.5 0.9 0.1 0.3 0.4 0.5 0.7 0.5 0.1 0 0.1 0 0.2 0 0.8-0.2 1.5-0.5 2.3-0.7 0.4-0.1 0.6-0.5 0.5-0.9C39.6 74.2 39.2 74 38.8 74.1z" fill="#877eff" data-fill-palette-color="accent"></path><path d="M49.9 69.9c-0.7 0.3-1.5 0.6-2.2 0.9-0.4 0.1-0.5 0.6-0.4 0.9 0.1 0.3 0.4 0.4 0.6 0.4 0.1 0 0.2 0 0.3-0.1 0.7-0.3 1.5-0.6 2.2-1 0.4-0.2 0.5-0.6 0.4-0.9C50.7 69.9 50.3 69.7 49.9 69.9z" fill="#877eff" data-fill-palette-color="accent"></path><path d="M15.5 77.6c-0.8-0.1-1.6-0.2-2.3-0.3-0.4-0.1-0.7 0.2-0.8 0.5-0.1 0.4 0.2 0.7 0.5 0.8 0.8 0.2 1.6 0.3 2.4 0.4 0 0 0 0 0.1 0 0.4 0 0.7-0.3 0.7-0.6C16.1 78 15.9 77.7 15.5 77.6z" fill="#877eff" data-fill-palette-color="accent"></path><path d="M26.8 77.1c-0.6 0.1-1.3 0.2-1.9 0.3-0.4 0-0.7 0.4-0.6 0.8 0 0.4 0.3 0.6 0.7 0.6 0 0 0.1 0 0.1 0 0.6-0.1 1.3-0.2 1.9-0.3l0.4-0.1L27.2 77 26.8 77.1z" fill="#877eff" data-fill-palette-color="accent"></path><path d="M5.7 70.5c0-0.4-0.3-0.7-0.7-0.7 0 0 0 0 0 0-0.4 0-0.7 0.3-0.7 0.7 0 0.9 0.2 1.8 0.5 2.6 0.1 0.3 0.4 0.4 0.7 0.4 0.1 0 0.2 0 0.3 0 0.4-0.1 0.5-0.5 0.4-0.9C5.8 71.9 5.7 71.2 5.7 70.5z" fill="#877eff" data-fill-palette-color="accent"></path><path d="M60.6 64.5c-0.7 0.4-1.4 0.8-2.1 1.2-0.3 0.2-0.5 0.6-0.3 0.9 0.1 0.2 0.4 0.4 0.6 0.4 0.1 0 0.2 0 0.3-0.1 0.7-0.4 1.4-0.8 2.1-1.2 0.3-0.2 0.4-0.6 0.3-1C61.3 64.4 60.9 64.3 60.6 64.5z" fill="#877eff" data-fill-palette-color="accent"></path><path d="M6.9 64.1c-0.3-0.2-0.8 0-0.9 0.3-0.4 0.8-0.7 1.6-1 2.3-0.1 0.4 0.1 0.8 0.4 0.9 0.1 0 0.2 0 0.2 0 0.3 0 0.6-0.2 0.7-0.5 0.2-0.7 0.5-1.4 0.9-2.1C7.4 64.7 7.2 64.3 6.9 64.1z" fill="#877eff" data-fill-palette-color="accent"></path><path d="M55.3 67.3c-0.7 0.4-1.4 0.7-2.1 1.1-0.3 0.2-0.5 0.6-0.3 0.9 0.1 0.2 0.4 0.4 0.6 0.4 0.1 0 0.2 0 0.3-0.1 0.7-0.4 1.5-0.7 2.2-1.1 0.3-0.2 0.5-0.6 0.3-0.9S55.7 67.1 55.3 67.3z" fill="#877eff" data-fill-palette-color="accent"></path><path d="M9.4 59.3c-0.5 0.7-1 1.3-1.5 1.9-0.2 0.3-0.2 0.8 0.2 1 0.1 0.1 0.3 0.1 0.4 0.1 0.2 0 0.4-0.1 0.6-0.3 0.4-0.6 0.9-1.2 1.4-1.9 0.2-0.3 0.2-0.7-0.1-1C10.1 59 9.7 59 9.4 59.3z" fill="#877eff" data-fill-palette-color="accent"></path><path d="M21.4 77.7c-0.8 0.1-1.6 0.1-2.4 0.1-0.4 0-0.7 0.3-0.7 0.7 0 0.4 0.3 0.7 0.7 0.7 0 0 0 0 0 0 0.8 0 1.6 0 2.4-0.1 0.4 0 0.7-0.4 0.7-0.7C22.1 78 21.8 77.7 21.4 77.7z" fill="#877eff" data-fill-palette-color="accent"></path><path d="M12.9 57.6c0.3-0.3 0.5-0.5 0.8-0.8 0.3-0.3 0.3-0.7 0-1-0.3-0.3-0.7-0.3-1 0-0.3 0.3-0.6 0.6-0.8 0.8-0.3 0.3-0.3 0.7 0 1 0.1 0.1 0.3 0.2 0.5 0.2C12.6 57.8 12.8 57.7 12.9 57.6z" fill="#877eff" data-fill-palette-color="accent"></path><path d="M77.6 55.1c-0.3-0.3-0.7-0.3-1 0-0.3 0.3-0.3 0.7 0 1 7.1 6.7 10.1 12.8 8.2 16.9-2 4.2-9.5 5.8-20 4.2-8-1.2-17-4.1-26-8.3-10.6-5-19.9-11.3-26-17.6-5.8-6-8.2-11.5-6.5-15.2 1.4-2.9 5.1-4.5 10.9-4.8 0.4 0 0.7-0.3 0.7-0.7 0-0.4-0.4-0.7-0.7-0.7C10.7 30.1 6.6 32.1 5 35.4c-2 4.3 0.4 10.2 6.7 16.8C18 58.7 27.4 65 38.2 70.1c1.8 0.9 3.6 1.6 5.4 2.4-0.5 0.2-0.9 0.4-1.4 0.5-0.4 0.1-0.6 0.5-0.4 0.9 0.1 0.3 0.4 0.5 0.7 0.5 0.1 0 0.2 0 0.2 0 0.8-0.3 1.5-0.5 2.3-0.8 0.2-0.1 0.3-0.2 0.4-0.3 6.7 2.6 13.3 4.5 19.3 5.4 2.8 0.4 5.4 0.6 7.7 0.6 7.1 0 12-1.9 13.7-5.6C88.2 68.9 85.2 62.3 77.6 55.1z" fill="#877eff" data-fill-palette-color="accent"></path></g></svg></g></svg></g><g id="text-0"><path d="M7.26 40.374v0l0.38 0.178c0.402 0.133 0.724 0.086 0.966-0.141v0c0.081-0.078 0.144-0.182 0.187-0.314 0.044-0.132 0.06-0.255 0.049-0.371-0.009-0.121-0.039-0.229-0.092-0.323v0c-0.105-0.188-0.258-0.315-0.459-0.381-0.201-0.066-0.394-0.085-0.577-0.055-0.188 0.022-0.385 0.068-0.59 0.14v0l-0.623 0.244c-0.503 0.196-0.933 0.295-1.289 0.296-0.358 0.007-0.672-0.033-0.942-0.123-0.27-0.089-0.517-0.205-0.741-0.349-0.216-0.148-0.411-0.317-0.586-0.506-0.183-0.186-0.337-0.393-0.463-0.623-0.128-0.223-0.225-0.457-0.291-0.702v0c-0.144-0.514-0.147-0.979-0.01-1.393 0.137-0.415 0.3-0.719 0.489-0.915 0.19-0.195 0.396-0.336 0.62-0.422v0c0.42-0.154 0.866-0.153 1.337 0.002v0c0.433 0.143 0.801 0.4 1.104 0.771v0c0.277 0.342 0.416 0.67 0.417 0.984v0c0.011 0.073-0.002 0.163-0.037 0.27-0.033 0.101-0.078 0.183-0.134 0.248-0.063 0.063-0.127 0.111-0.194 0.145v0c-0.159 0.08-0.307 0.097-0.445 0.052v0c-0.094-0.031-0.148-0.08-0.161-0.147v0c-0.053-0.303-0.181-0.592-0.382-0.868v0c-0.214-0.301-0.465-0.502-0.752-0.603-0.279-0.106-0.511-0.109-0.697-0.011-0.182 0.107-0.312 0.28-0.39 0.519-0.081 0.245-0.1 0.482-0.058 0.713 0.043 0.23 0.134 0.448 0.275 0.655v0c0.296 0.432 0.718 0.738 1.265 0.918v0c0.358 0.118 0.78 0.118 1.264-0.001v0c0.203-0.045 0.41-0.102 0.621-0.171 0.203-0.065 0.411-0.126 0.624-0.181v0c0.489-0.11 0.897-0.112 1.223-0.004 0.32 0.106 0.574 0.255 0.761 0.45 0.183 0.186 0.323 0.403 0.423 0.651v0c0.221 0.533 0.245 1.063 0.071 1.591v0c-0.164 0.496-0.438 0.831-0.823 1.003v0c-0.311 0.141-0.608 0.165-0.89 0.072v0c-0.302-0.099-0.527-0.271-0.677-0.516v0c-0.114-0.184-0.166-0.34-0.158-0.47v0c0.018-0.287 0.146-0.391 0.385-0.312z" fill="#877eff" data-fill-palette-color="accent"></path><path d="M12.713 31.68c-0.203 0.056-0.419 0.062-0.646 0.017-0.231-0.038-0.477-0.131-0.736-0.278-0.255-0.153-0.495-0.339-0.718-0.557-0.22-0.224-0.417-0.469-0.59-0.734-0.173-0.265-0.316-0.548-0.43-0.847-0.108-0.296-0.181-0.594-0.217-0.893v0c-0.076-0.647 0.029-1.208 0.314-1.685v0c0.377-0.63 0.907-0.891 1.59-0.783v0c0.492 0.079 0.98 0.359 1.463 0.84v0c0.448 0.437 0.785 0.955 1.013 1.554v0c0.233 0.602 0.303 1.187 0.21 1.756v0c-0.048 0.287-0.139 0.541-0.272 0.763-0.136 0.227-0.285 0.412-0.447 0.553-0.159 0.136-0.337 0.234-0.533 0.294zM11.016 29.473c0.169 0.232 0.358 0.445 0.566 0.639 0.208 0.194 0.417 0.353 0.626 0.479 0.213 0.12 0.398 0.184 0.555 0.193 0.162 0.012 0.284-0.05 0.366-0.186 0.085-0.142 0.12-0.31 0.105-0.503-0.015-0.194-0.065-0.401-0.149-0.621-0.081-0.226-0.189-0.456-0.326-0.692-0.142-0.239-0.301-0.469-0.477-0.691v0c-0.379-0.474-0.761-0.822-1.145-1.043v0c-0.335-0.2-0.589-0.26-0.761-0.178v0c-0.07 0.027-0.136 0.092-0.197 0.194-0.058 0.096-0.08 0.237-0.067 0.422 0.016 0.179 0.062 0.38 0.137 0.603 0.075 0.222 0.181 0.451 0.317 0.687 0.127 0.238 0.277 0.47 0.45 0.697z" fill="#877eff" data-fill-palette-color="accent"></path><path d="M17.63 22.223v0c-0.217-0.223-0.402-0.473-0.554-0.753-0.157-0.284-0.279-0.575-0.366-0.874-0.092-0.294-0.146-0.597-0.163-0.91-0.022-0.309-0.006-0.608 0.048-0.899v0c0.111-0.614 0.364-1.121 0.758-1.522v0c0.408-0.415 0.851-0.536 1.329-0.364v0c0.169 0.064 0.327 0.172 0.473 0.326 0.146 0.153 0.26 0.311 0.342 0.474 0.081 0.172 0.136 0.343 0.166 0.511v0c0.074 0.369 0.032 0.634-0.126 0.794v0c-0.171 0.175-0.344 0.256-0.517 0.243v0c-0.159-0.008-0.281-0.082-0.367-0.221v0c-0.019-0.037-0.024-0.089-0.016-0.155 0.009-0.066 0.013-0.154 0.012-0.266v0c-0.012-0.337-0.127-0.621-0.345-0.853v0c-0.156-0.162-0.331-0.144-0.525 0.054v0c-0.209 0.212-0.308 0.555-0.3 1.027v0c0.011 0.678 0.221 1.352 0.629 2.022v0c0.352 0.586 0.717 0.903 1.097 0.951v0c0.225 0.026 0.421-0.046 0.587-0.216v0c0.283-0.288 0.452-0.664 0.509-1.127v0c0.022-0.145 0.023-0.274 0.003-0.386-0.015-0.117-0.002-0.196 0.04-0.239 0.042-0.042 0.098-0.057 0.168-0.044 0.07 0.004 0.138 0.038 0.205 0.104v0c0.151 0.148 0.233 0.363 0.244 0.643v0c-0.013 0.664-0.255 1.237-0.728 1.719v0c-0.408 0.415-0.841 0.621-1.299 0.615v0c-0.449-0.005-0.884-0.223-1.304-0.654z" fill="#877eff" data-fill-palette-color="accent"></path><path d="M25.391 9.428c-0.017 0.106-0.053 0.209-0.106 0.308-0.054 0.099-0.124 0.184-0.211 0.257-0.087 0.073-0.182 0.115-0.285 0.127-0.108 0.016-0.217 0.008-0.324-0.024v0c-0.225-0.066-0.387-0.173-0.485-0.323-0.102-0.155-0.151-0.285-0.149-0.389-0.001-0.11 0.018-0.214 0.057-0.31v0c0.086-0.183 0.192-0.316 0.32-0.4 0.122-0.08 0.224-0.135 0.306-0.165 0.083-0.031 0.166-0.042 0.251-0.035v0c0.211-0.004 0.364 0.066 0.458 0.21 0.091 0.138 0.148 0.267 0.171 0.387 0.017 0.123 0.017 0.242-0.003 0.357zM27.643 14.846v0c0.077-0.051 0.149-0.026 0.214 0.073v0c0.087 0.133 0.117 0.311 0.09 0.535v0c-0.043 0.321-0.213 0.579-0.512 0.775v0c-0.343 0.225-0.669 0.241-0.977 0.048v0c-0.115-0.067-0.218-0.169-0.309-0.307-0.091-0.138-0.168-0.309-0.23-0.514-0.063-0.204-0.12-0.424-0.172-0.659-0.052-0.235-0.097-0.479-0.135-0.73v0l-0.138-0.716c-0.101-0.527-0.195-0.857-0.282-0.99-0.091-0.138-0.163-0.218-0.216-0.239-0.057-0.026-0.109-0.039-0.156-0.039v0l-0.135-0.007c-0.042-0.004-0.08-0.031-0.112-0.08-0.036-0.055-0.05-0.118-0.04-0.188 0.006-0.075 0.031-0.151 0.075-0.228v0c0.089-0.153 0.225-0.29 0.408-0.41v0c0.437-0.287 0.73-0.317 0.878-0.09v0c0.174 0.265 0.302 0.617 0.384 1.054 0.087 0.434 0.15 0.788 0.188 1.064v0l0.137 0.788c0.104 0.58 0.222 0.97 0.353 1.169v0c0.084 0.127 0.189 0.149 0.316 0.066v0c0.127-0.084 0.215-0.161 0.263-0.232 0.045-0.077 0.081-0.124 0.108-0.143z" fill="#877eff" data-fill-palette-color="accent"></path><path d="M37.28 9.732v0c0.12 0.308 0.287 0.421 0.503 0.337v0c0.148-0.057 0.262-0.13 0.342-0.217 0.076-0.079 0.132-0.126 0.169-0.14v0c0.068-0.026 0.115-0.006 0.141 0.062v0c0.112 0.29 0.06 0.594-0.157 0.912v0c-0.231 0.338-0.531 0.515-0.901 0.53v0c-0.245 0.01-0.468-0.092-0.671-0.303v0c-0.1-0.11-0.17-0.218-0.211-0.323v0c-0.067-0.173-0.122-0.361-0.165-0.564v0c-0.058 0.746-0.273 1.326-0.645 1.74v0c-0.143 0.162-0.316 0.282-0.52 0.361-0.21 0.081-0.404 0.111-0.583 0.088-0.181-0.029-0.356-0.096-0.525-0.201v0c-0.332-0.233-0.579-0.588-0.742-1.064v0c-0.209-0.593-0.26-1.237-0.153-1.931v0c0.097-0.648 0.312-1.228 0.645-1.739v0c0.325-0.516 0.688-0.852 1.089-1.008 0.401-0.155 0.795-0.099 1.183 0.169v0c0.087-0.452 0.217-0.712 0.39-0.779v0c0.191-0.074 0.346-0.095 0.465-0.063v0c0.235 0.058 0.344 0.147 0.327 0.267v0c-0.166 2.023-0.181 3.248-0.043 3.678v0c0.018 0.064 0.039 0.127 0.062 0.188zM34.531 10.82v0c0.155 0.401 0.36 0.552 0.612 0.454v0c0.197-0.077 0.373-0.336 0.528-0.78v0c0.23-0.65 0.347-1.447 0.35-2.391v0c-0.002-0.297-0.016-0.59-0.043-0.878v0c-0.107-0.221-0.267-0.35-0.48-0.388v0c-0.076-0.013-0.173 0.003-0.29 0.048-0.117 0.045-0.236 0.141-0.357 0.288-0.127 0.149-0.236 0.325-0.326 0.531-0.082 0.209-0.148 0.441-0.199 0.694-0.051 0.254-0.077 0.516-0.078 0.786v0c-0.005 0.591 0.089 1.136 0.283 1.636z" fill="#877eff" data-fill-palette-color="accent"></path><path d="M44.834 9.004c-0.099-0.079-0.188-0.186-0.269-0.321-0.074-0.136-0.125-0.299-0.154-0.489-0.028-0.183-0.023-0.441 0.014-0.775 0.038-0.327 0.095-0.703 0.172-1.129v0l0.245-1.371c0.354-1.919 0.505-3.387 0.452-4.403v0c-0.012-0.299 0.11-0.468 0.366-0.506v0c0.157-0.024 0.297-0.004 0.42 0.057v0c0.226 0.127 0.351 0.285 0.372 0.476 0.022 0.191 0.02 0.425-0.004 0.703-0.018 0.284-0.048 0.593-0.092 0.927-0.05 0.335-0.107 0.692-0.17 1.069v0l-0.415 2.249c-0.23 1.272-0.319 2.085-0.266 2.438v0c0.029 0.19 0.118 0.273 0.269 0.251v0c0.15-0.023 0.28-0.072 0.389-0.149 0.114-0.084 0.188-0.129 0.22-0.133v0c0.072-0.011 0.113 0.02 0.124 0.092v0c0.047 0.314-0.071 0.599-0.353 0.855v0c-0.194 0.176-0.38 0.278-0.556 0.305-0.177 0.027-0.323 0.029-0.44 0.006-0.118-0.029-0.226-0.08-0.324-0.152z" fill="#877eff" data-fill-palette-color="accent"></path><path d="M57.337 6.784l0.755-1.677c-0.431-0.078-0.855-0.135-1.27-0.171-0.415-0.036-0.846-0.048-1.292-0.034v0c-0.704 1.519-1.406 2.586-2.104 3.202v0c-0.26 0.236-0.522 0.386-0.786 0.449v0c-0.068 0.021-0.135 0.028-0.202 0.022-0.066-0.006-0.121-0.024-0.164-0.054-0.051-0.024-0.091-0.058-0.121-0.1v0c-0.067-0.072-0.097-0.148-0.089-0.227 0.007-0.079 0.039-0.136 0.094-0.171v0c0.596-0.359 1.285-1.358 2.066-2.996v0c-0.034 0.004-0.061 0.011-0.082 0.022-0.027 0.004-0.057 0.008-0.09 0.012-0.041 0.01-0.083-0.004-0.126-0.041-0.05-0.038-0.092-0.084-0.127-0.14v0c-0.081-0.133-0.083-0.226-0.006-0.28v0c0.128-0.102 0.372-0.187 0.73-0.254v0c0.603-1.428 0.942-2.447 1.015-3.059v0c-0.146-0.006-0.284 0.022-0.415 0.083v0l-0.425 0.192c-0.111 0.05-0.252-0.009-0.423-0.176v0c-0.158-0.167-0.221-0.315-0.19-0.445v0c0.044-0.202 0.342-0.345 0.894-0.43v0c0.195-0.029 0.345-0.039 0.451-0.03 0.112 0.01 0.22 0.023 0.325 0.038 0.111 0.016 0.209 0.038 0.293 0.066v0c0.348 0.117 0.552 0.288 0.613 0.512v0c0.024 0.102 0.03 0.225 0.017 0.37-0.012 0.138-0.04 0.302-0.083 0.491-0.043 0.182-0.101 0.393-0.175 0.632v0c-0.158 0.511-0.358 1.054-0.601 1.63v0c0.779-0.025 1.58-0.001 2.404 0.072v0l0.227 0.02 0.373-0.844c0.408-0.947 0.674-1.667 0.797-2.161v0c0.066-0.3 0.228-0.438 0.485-0.416v0c0.158 0.014 0.286 0.068 0.384 0.164v0c0.185 0.162 0.267 0.326 0.246 0.489-0.022 0.171-0.068 0.356-0.138 0.556-0.071 0.206-0.161 0.434-0.27 0.683-0.108 0.249-0.228 0.521-0.36 0.815v0l-0.414 0.861 0.128 0.021c0.052 0.011 0.101 0.022 0.146 0.032 0.046 0.011 0.088 0.024 0.126 0.041v0c0.07 0.033 0.102 0.085 0.096 0.158-0.006 0.066-0.032 0.137-0.079 0.212-0.046 0.069-0.112 0.136-0.197 0.202v0c-0.192 0.143-0.407 0.207-0.644 0.193v0c-0.528 1.102-0.84 1.779-0.935 2.029-0.095 0.251-0.146 0.419-0.154 0.505v0c-0.017 0.191 0.051 0.293 0.202 0.306v0c0.145 0.013 0.262 0 0.352-0.039v0l0.196-0.072c0.041-0.016 0.082-0.023 0.121-0.019v0c0.072 0.006 0.106 0.046 0.099 0.118v0c-0.028 0.316-0.232 0.564-0.613 0.743v0c-0.257 0.124-0.513 0.174-0.77 0.152v0c-0.362-0.032-0.599-0.215-0.709-0.551v0c-0.043-0.117-0.06-0.224-0.051-0.323v0c0.02-0.231 0.077-0.458 0.169-0.682 0.093-0.231 0.193-0.464 0.301-0.701z" fill="#877eff" data-fill-palette-color="accent"></path><path d="M69.411 10.359v0c-0.109 0.312-0.054 0.507 0.164 0.583v0c0.15 0.052 0.284 0.071 0.401 0.056 0.109-0.011 0.182-0.01 0.219 0.003v0c0.069 0.024 0.091 0.07 0.067 0.139v0c-0.102 0.294-0.34 0.491-0.711 0.592v0c-0.395 0.107-0.738 0.047-1.03-0.18v0c-0.192-0.151-0.297-0.373-0.313-0.667v0c-0.004-0.149 0.012-0.276 0.049-0.382v0c0.061-0.175 0.141-0.354 0.24-0.536v0c-0.528 0.53-1.068 0.832-1.62 0.906v0c-0.214 0.03-0.424 0.01-0.63-0.063-0.212-0.074-0.379-0.178-0.5-0.311-0.119-0.14-0.209-0.304-0.27-0.493v0c-0.101-0.393-0.06-0.823 0.125-1.291v0c0.226-0.587 0.605-1.11 1.136-1.569v0c0.493-0.43 1.033-0.732 1.62-0.906v0c0.582-0.182 1.076-0.202 1.482-0.061 0.406 0.142 0.67 0.44 0.79 0.896v0c0.36-0.288 0.627-0.401 0.802-0.34v0c0.194 0.068 0.325 0.152 0.395 0.253v0c0.142 0.197 0.167 0.335 0.076 0.416v0c-1.439 1.432-2.244 2.355-2.418 2.771v0c-0.028 0.06-0.053 0.122-0.074 0.184zM66.612 9.403v0c-0.142 0.406-0.085 0.654 0.172 0.743v0c0.2 0.07 0.502-0.014 0.907-0.25v0c0.597-0.345 1.203-0.876 1.818-1.594v0c0.191-0.227 0.37-0.459 0.537-0.695v0c0.062-0.238 0.024-0.44-0.114-0.608v0c-0.049-0.059-0.133-0.11-0.252-0.151-0.119-0.041-0.271-0.046-0.458-0.012-0.193 0.031-0.39 0.095-0.593 0.192-0.198 0.106-0.399 0.239-0.602 0.4-0.203 0.16-0.393 0.343-0.569 0.547v0c-0.387 0.446-0.669 0.923-0.846 1.428z" fill="#877eff" data-fill-palette-color="accent"></path><path d="M75.34 14.621c-0.027-0.08-0.042-0.161-0.045-0.241 0.003-0.077 0.014-0.137 0.033-0.179 0.025-0.039 0.066-0.084 0.122-0.134 0.058-0.041 0.128-0.095 0.21-0.16v0c1.58-1.106 2.534-1.915 2.864-2.427v0c0.082-0.152 0.097-0.284 0.043-0.397v0l-0.048-0.126c-0.008-0.037 0.002-0.082 0.028-0.135 0.036-0.056 0.088-0.093 0.155-0.113 0.071-0.025 0.148-0.034 0.231-0.028v0c0.171 0.016 0.326 0.068 0.465 0.158 0.133 0.086 0.23 0.168 0.29 0.246 0.06 0.078 0.099 0.158 0.116 0.241v0c0.045 0.186 0.03 0.338-0.045 0.455-0.079 0.122-0.172 0.236-0.279 0.34-0.107 0.104-0.217 0.202-0.331 0.294-0.114 0.092-0.225 0.178-0.332 0.258-0.107 0.081-0.182 0.142-0.226 0.185v0c-0.09 0.091-0.142 0.153-0.154 0.184v0c0.112-0.015 0.193-0.049 0.244-0.103v0l0.39-0.22c0.837-0.444 1.516-0.659 2.035-0.648v0c0.145 0.007 0.293 0.059 0.443 0.156 0.15 0.097 0.238 0.229 0.264 0.395 0.021 0.163-0.007 0.31-0.084 0.442-0.077 0.131-0.153 0.232-0.229 0.301-0.076 0.069-0.161 0.128-0.256 0.177v0c-0.208 0.102-0.381 0.108-0.52 0.019v0c-0.039-0.025-0.066-0.062-0.082-0.112v0l-0.046-0.148c-0.037-0.15-0.103-0.255-0.197-0.316-0.089-0.057-0.24-0.068-0.452-0.032-0.203 0.034-0.435 0.101-0.696 0.2v0c-0.874 0.318-1.71 0.766-2.509 1.346v0l-0.525 0.393c-0.136 0.101-0.24 0.164-0.311 0.189-0.075 0.03-0.151 0.021-0.229-0.03-0.078-0.05-0.144-0.113-0.198-0.187-0.06-0.078-0.106-0.159-0.139-0.243z" fill="#877eff" data-fill-palette-color="accent"></path><path d="M84.143 19.44v0c0.15-0.149 0.303-0.277 0.458-0.384 0.155-0.107 0.317-0.212 0.485-0.314 0.169-0.102 0.342-0.2 0.521-0.292v0l1.715-0.863c1.383-0.701 2.412-1.302 3.088-1.805v0c0.239-0.181 0.447-0.183 0.624-0.004v0c0.102 0.103 0.163 0.221 0.181 0.351v0c0.027 0.243-0.023 0.423-0.149 0.54-0.127 0.116-0.282 0.233-0.465 0.349-0.183 0.116-0.387 0.239-0.612 0.369-0.22 0.125-0.459 0.251-0.717 0.376v0c-0.67 0.329-1.158 0.561-1.462 0.696v0l-0.773 0.347c0.562-0.119 0.971-0.171 1.228-0.156v0c0.519 0.035 0.928 0.203 1.226 0.503v0c0.438 0.441 0.499 0.963 0.183 1.566v0c-0.113 0.205-0.287 0.424-0.522 0.657-0.235 0.233-0.505 0.431-0.809 0.593-0.3 0.167-0.609 0.287-0.928 0.361-0.318 0.083-0.634 0.126-0.948 0.129-0.323 0.003-0.627-0.026-0.912-0.088v0c-0.598-0.133-1.07-0.374-1.414-0.721v0c-0.345-0.348-0.509-0.725-0.493-1.132v0c0.016-0.407 0.181-0.766 0.495-1.078zM84.578 21.119v0c0.233 0.235 0.576 0.37 1.03 0.404v0c0.697 0.054 1.409-0.153 2.136-0.623v0c0.239-0.153 0.464-0.335 0.675-0.544 0.211-0.21 0.338-0.382 0.381-0.518 0.038-0.131 0.008-0.246-0.089-0.344-0.102-0.103-0.247-0.169-0.435-0.198-0.187-0.029-0.407-0.034-0.659-0.017-0.248 0.013-0.515 0.045-0.8 0.095-0.29 0.055-0.571 0.129-0.843 0.221v0c-0.614 0.199-1.061 0.438-1.343 0.717-0.286 0.284-0.304 0.553-0.053 0.807z" fill="#877eff" data-fill-palette-color="accent"></path><path d="M90.665 28.992c0.047-0.205 0.143-0.398 0.29-0.578 0.143-0.186 0.34-0.358 0.592-0.517 0.255-0.153 0.532-0.277 0.831-0.371 0.302-0.088 0.61-0.146 0.925-0.173 0.315-0.027 0.632-0.02 0.95 0.02 0.312 0.044 0.609 0.121 0.89 0.23v0c0.606 0.238 1.051 0.596 1.337 1.073v0c0.378 0.63 0.358 1.22-0.06 1.771v0c-0.302 0.397-0.779 0.695-1.432 0.893v0c-0.597 0.188-1.213 0.241-1.848 0.16v0c-0.641-0.078-1.19-0.293-1.647-0.644v0c-0.23-0.178-0.412-0.378-0.544-0.599-0.136-0.227-0.228-0.445-0.277-0.656-0.045-0.204-0.048-0.407-0.007-0.609zM93.412 28.537c-0.285 0.04-0.562 0.105-0.831 0.197-0.269 0.092-0.508 0.201-0.718 0.327-0.207 0.132-0.351 0.264-0.432 0.398-0.087 0.137-0.09 0.274-0.009 0.41 0.085 0.142 0.217 0.252 0.395 0.33 0.178 0.078 0.384 0.132 0.617 0.162 0.237 0.035 0.492 0.048 0.765 0.039 0.278-0.012 0.556-0.044 0.833-0.095v0c0.597-0.111 1.083-0.283 1.461-0.517v0c0.335-0.201 0.507-0.396 0.515-0.586v0c0.009-0.075-0.017-0.163-0.078-0.266-0.058-0.096-0.171-0.183-0.34-0.259-0.166-0.07-0.364-0.125-0.596-0.163-0.231-0.039-0.483-0.053-0.755-0.045-0.27 0-0.546 0.023-0.827 0.068z" fill="#877eff" data-fill-palette-color="accent"></path><path d="M95.07 38.353c0.031-0.079 0.071-0.15 0.12-0.214 0.051-0.058 0.098-0.096 0.141-0.117 0.044-0.014 0.104-0.022 0.179-0.024 0.071 0.006 0.159 0.009 0.264 0.011v0c1.922 0.164 3.173 0.155 3.754-0.026v0c0.16-0.064 0.256-0.156 0.288-0.276v0l0.043-0.128c0.017-0.033 0.054-0.062 0.108-0.086 0.063-0.02 0.127-0.015 0.191 0.013 0.071 0.027 0.136 0.069 0.196 0.127v0c0.121 0.122 0.206 0.261 0.255 0.419 0.047 0.152 0.069 0.276 0.065 0.375-0.004 0.098-0.026 0.185-0.065 0.259v0c-0.085 0.172-0.194 0.279-0.327 0.32-0.139 0.043-0.283 0.071-0.431 0.082-0.149 0.012-0.296 0.016-0.443 0.013-0.146-0.003-0.286-0.008-0.42-0.014-0.134-0.007-0.231-0.008-0.292-0.003v0c-0.128 0.012-0.207 0.026-0.236 0.042v0c0.095 0.06 0.179 0.086 0.252 0.078v0l0.441 0.081c0.927 0.196 1.586 0.466 1.977 0.808v0c0.107 0.098 0.187 0.233 0.24 0.403 0.053 0.171 0.036 0.328-0.05 0.473-0.089 0.138-0.204 0.233-0.348 0.285-0.143 0.052-0.266 0.079-0.369 0.084-0.103 0.004-0.206-0.005-0.31-0.028v0c-0.225-0.055-0.362-0.161-0.411-0.319v0c-0.014-0.044-0.011-0.09 0.009-0.138v0l0.059-0.143c0.068-0.139 0.085-0.262 0.052-0.37-0.031-0.101-0.14-0.206-0.327-0.314-0.178-0.104-0.399-0.201-0.663-0.292v0c-0.875-0.317-1.804-0.509-2.787-0.577v0l-0.656-0.035c-0.169-0.01-0.289-0.028-0.359-0.054-0.077-0.025-0.129-0.081-0.157-0.169-0.028-0.088-0.038-0.179-0.032-0.271 0.004-0.098 0.021-0.19 0.049-0.275z" fill="#877eff" data-fill-palette-color="accent"></path><path d="M5.902 67.917v0l-0.44 0.095c-0.439 0.147-0.689 0.391-0.748 0.732v0c-0.021 0.126-0.008 0.257 0.038 0.396 0.048 0.144 0.116 0.264 0.204 0.36 0.088 0.096 0.184 0.165 0.289 0.207v0c0.213 0.096 0.427 0.108 0.64 0.037 0.213-0.071 0.393-0.18 0.54-0.327 0.142-0.138 0.279-0.303 0.41-0.494v0l0.391-0.612c0.301-0.498 0.603-0.865 0.909-1.1 0.305-0.235 0.605-0.401 0.899-0.5 0.289-0.097 0.574-0.15 0.857-0.161 0.287-0.019 0.567-0.005 0.841 0.043 0.274 0.048 0.539 0.13 0.794 0.247 0.26 0.108 0.495 0.249 0.706 0.422v0c0.459 0.349 0.762 0.746 0.912 1.191 0.149 0.445 0.203 0.814 0.162 1.108-0.041 0.293-0.131 0.546-0.269 0.759v0c-0.257 0.4-0.639 0.685-1.147 0.855v0c-0.464 0.155-0.947 0.171-1.45 0.046v0c-0.458-0.119-0.791-0.311-0.998-0.576v0c-0.052-0.052-0.097-0.135-0.136-0.247-0.038-0.113-0.052-0.216-0.041-0.311 0.006-0.086 0.03-0.171 0.072-0.254v0c0.083-0.167 0.197-0.275 0.341-0.324v0c0.107-0.036 0.186-0.027 0.239 0.025v0c0.243 0.226 0.539 0.391 0.889 0.498v0c0.383 0.123 0.729 0.136 1.038 0.039 0.312-0.09 0.513-0.238 0.605-0.443 0.092-0.205 0.094-0.439 0.005-0.703-0.086-0.257-0.221-0.473-0.405-0.649-0.191-0.173-0.411-0.302-0.663-0.385v0c-0.536-0.183-1.095-0.177-1.678 0.018v0c-0.389 0.13-0.755 0.403-1.097 0.817v0c-0.144 0.174-0.285 0.357-0.423 0.55-0.138 0.193-0.281 0.38-0.429 0.562v0c-0.351 0.41-0.699 0.673-1.044 0.789-0.351 0.118-0.667 0.154-0.948 0.108-0.28-0.046-0.543-0.143-0.788-0.29v0c-0.538-0.315-0.903-0.758-1.093-1.329v0c-0.181-0.539-0.159-1.007 0.064-1.403v0c0.179-0.318 0.42-0.528 0.72-0.628v0c0.326-0.109 0.634-0.108 0.923 0.005v0c0.216 0.081 0.361 0.183 0.436 0.303v0c0.178 0.261 0.136 0.436-0.127 0.524z" fill="#877eff" data-fill-palette-color="accent"></path><path d="M8.42 78.669c0.048-0.215 0.151-0.423 0.306-0.625 0.156-0.202 0.368-0.388 0.637-0.558 0.278-0.167 0.576-0.301 0.895-0.4 0.328-0.097 0.659-0.162 0.995-0.194 0.345-0.03 0.685-0.023 1.021 0.022 0.342 0.041 0.664 0.121 0.967 0.239v0c0.658 0.26 1.141 0.644 1.449 1.154v0c0.406 0.674 0.386 1.312-0.063 1.915v0c-0.328 0.429-0.841 0.75-1.54 0.963v0c-0.643 0.202-1.31 0.261-2.002 0.176v0c-0.689-0.079-1.278-0.307-1.768-0.684v0c-0.252-0.188-0.452-0.404-0.598-0.647-0.143-0.238-0.242-0.472-0.296-0.702-0.05-0.225-0.051-0.444-0.003-0.659zM11.371 78.164c-0.302 0.051-0.597 0.124-0.886 0.222-0.289 0.097-0.547 0.214-0.774 0.35-0.229 0.146-0.385 0.29-0.468 0.433-0.089 0.147-0.09 0.293-0.001 0.441 0.092 0.153 0.234 0.272 0.424 0.358 0.187 0.08 0.409 0.14 0.664 0.179 0.252 0.034 0.527 0.041 0.826 0.024 0.296-0.009 0.593-0.041 0.891-0.097v0c0.646-0.119 1.172-0.305 1.576-0.556v0c0.363-0.219 0.548-0.431 0.556-0.636v0c0.002-0.086-0.028-0.18-0.09-0.282-0.065-0.108-0.186-0.2-0.364-0.279-0.182-0.084-0.396-0.144-0.642-0.181-0.246-0.037-0.519-0.054-0.819-0.051-0.29 0.005-0.588 0.03-0.893 0.075z" fill="#877eff" data-fill-palette-color="accent"></path><path d="M16.235 86.877v0c0.24-0.228 0.512-0.423 0.818-0.584 0.305-0.162 0.617-0.289 0.935-0.381 0.328-0.092 0.658-0.143 0.99-0.155 0.332-0.021 0.655-0.001 0.968 0.062v0c0.663 0.126 1.209 0.405 1.637 0.838v0c0.437 0.442 0.558 0.923 0.363 1.44v0c-0.071 0.182-0.192 0.352-0.361 0.51-0.165 0.153-0.338 0.274-0.521 0.362-0.183 0.078-0.363 0.136-0.542 0.172v0c-0.407 0.068-0.695 0.017-0.862-0.152v0c-0.186-0.188-0.271-0.378-0.256-0.57v0c0.015-0.164 0.098-0.292 0.248-0.385v0c0.042-0.023 0.096-0.03 0.162-0.02 0.07 0.014 0.168 0.02 0.294 0.016v0c0.36-0.002 0.667-0.12 0.921-0.352v0c0.174-0.163 0.156-0.35-0.052-0.562v0c-0.228-0.231-0.592-0.345-1.093-0.343v0c-0.734 0-1.465 0.216-2.193 0.646v0c-0.638 0.37-0.985 0.759-1.038 1.165v0c-0.03 0.243 0.044 0.454 0.221 0.633v0c0.307 0.311 0.708 0.5 1.203 0.569v0c0.159 0.02 0.302 0.023 0.428 0.009 0.122-0.018 0.206-0.003 0.252 0.044 0.046 0.047 0.06 0.108 0.041 0.183-0.01 0.075-0.052 0.149-0.128 0.223v0c-0.16 0.158-0.39 0.241-0.689 0.249v0c-0.716-0.018-1.331-0.289-1.847-0.811v0c-0.437-0.442-0.647-0.909-0.63-1.4v0c0.012-0.486 0.256-0.955 0.731-1.406z" fill="#877eff" data-fill-palette-color="accent"></path><path d="M30.083 91.489c-0.119 0.025-0.239 0.033-0.36 0.025-0.118-0.014-0.23-0.048-0.337-0.102-0.107-0.054-0.192-0.13-0.255-0.226-0.06-0.102-0.094-0.212-0.105-0.33v0c-0.033-0.251 0.003-0.457 0.108-0.617 0.109-0.166 0.213-0.271 0.314-0.316 0.11-0.047 0.22-0.07 0.33-0.069v0c0.22 0.002 0.399 0.048 0.538 0.139 0.133 0.087 0.233 0.164 0.299 0.231 0.057 0.069 0.105 0.148 0.142 0.236v0c0.086 0.207 0.08 0.385-0.018 0.534-0.101 0.155-0.207 0.268-0.316 0.338-0.104 0.074-0.217 0.127-0.34 0.157zM25.692 96.038v0c0.083 0.054 0.088 0.137 0.016 0.247v0c-0.094 0.144-0.254 0.249-0.479 0.315v0c-0.342 0.1-0.674 0.045-0.995-0.165v0c-0.371-0.243-0.526-0.562-0.465-0.957v0c0.014-0.141 0.069-0.287 0.167-0.436 0.098-0.149 0.234-0.297 0.409-0.444 0.173-0.156 0.366-0.306 0.58-0.45 0.212-0.154 0.433-0.305 0.665-0.454v0l0.641-0.435c0.485-0.331 0.775-0.568 0.869-0.711 0.094-0.144 0.139-0.249 0.135-0.315 0.005-0.068-0.005-0.126-0.029-0.173v0l-0.048-0.126c-0.015-0.049-0.004-0.102 0.032-0.157 0.036-0.055 0.093-0.093 0.17-0.115 0.077-0.021 0.161-0.029 0.253-0.024v0c0.195 0.017 0.389 0.089 0.582 0.216v0c0.47 0.308 0.624 0.587 0.461 0.835v0c-0.188 0.288-0.479 0.568-0.871 0.841-0.392 0.273-0.715 0.488-0.969 0.647v0l-0.72 0.465c-0.529 0.349-0.865 0.632-1.006 0.848v0c-0.094 0.144-0.072 0.261 0.066 0.351v0c0.138 0.091 0.256 0.14 0.354 0.149 0.094 0.014 0.154 0.03 0.182 0.048z" fill="#877eff" data-fill-palette-color="accent"></path><path d="M36.342 100.656v0c-0.127 0.327-0.076 0.534 0.152 0.623v0c0.16 0.062 0.302 0.089 0.426 0.081 0.124-0.009 0.204-0.006 0.241 0.008v0c0.074 0.029 0.095 0.083 0.065 0.164v0c-0.12 0.308-0.382 0.508-0.787 0.599v0c-0.43 0.102-0.798 0.027-1.104-0.227v0c-0.203-0.171-0.304-0.413-0.304-0.725v0c0-0.163 0.021-0.301 0.065-0.411v0c0.072-0.185 0.167-0.375 0.285-0.571v0c-0.597 0.549-1.192 0.857-1.786 0.924v0c-0.236 0.022-0.464-0.01-0.686-0.096-0.216-0.084-0.389-0.204-0.519-0.362-0.124-0.155-0.214-0.335-0.269-0.541v0c-0.099-0.422-0.041-0.882 0.174-1.38v0c0.272-0.625 0.702-1.175 1.29-1.648v0c0.55-0.446 1.141-0.752 1.773-0.919v0c0.637-0.178 1.171-0.183 1.603-0.016 0.432 0.168 0.702 0.504 0.812 1.008v0c0.402-0.305 0.699-0.42 0.89-0.346v0c0.203 0.079 0.339 0.178 0.406 0.296v0c0.142 0.218 0.165 0.369 0.069 0.453v0c-1.606 1.484-2.508 2.446-2.708 2.886v0c-0.033 0.065-0.062 0.132-0.088 0.2zM33.366 99.521v0c-0.168 0.432-0.116 0.7 0.155 0.805v0c0.21 0.081 0.538 0.003 0.986-0.234v0c0.654-0.349 1.326-0.9 2.016-1.654v0c0.219-0.234 0.419-0.476 0.601-0.725v0c0.081-0.245 0.049-0.464-0.097-0.655v0c-0.047-0.061-0.136-0.117-0.265-0.167-0.123-0.048-0.289-0.059-0.498-0.034-0.202 0.028-0.415 0.091-0.637 0.189-0.223 0.098-0.444 0.229-0.664 0.392-0.222 0.169-0.436 0.363-0.641 0.581v0c-0.429 0.465-0.748 0.965-0.956 1.502z" fill="#877eff" data-fill-palette-color="accent"></path><path d="M43.853 103.971c-0.077-0.112-0.132-0.251-0.168-0.417-0.036-0.159-0.038-0.34-0.007-0.543 0.031-0.203 0.118-0.467 0.262-0.793 0.143-0.326 0.32-0.694 0.529-1.103v0l0.687-1.341c0.981-1.864 1.605-3.325 1.873-4.381v0c0.082-0.315 0.263-0.452 0.544-0.409v0c0.17 0.026 0.307 0.09 0.412 0.193v0c0.191 0.196 0.268 0.395 0.23 0.598-0.038 0.208-0.112 0.451-0.221 0.729-0.11 0.284-0.244 0.592-0.402 0.922-0.151 0.332-0.321 0.68-0.511 1.046v0l-1.137 2.185c-0.651 1.239-1.005 2.048-1.063 2.428v0c-0.032 0.209 0.034 0.326 0.198 0.351v0c0.163 0.025 0.316 0.011 0.457-0.041 0.141-0.045 0.228-0.066 0.261-0.06v0c0.085 0.013 0.122 0.059 0.109 0.137v0c-0.051 0.334-0.267 0.588-0.648 0.764v0c-0.253 0.122-0.477 0.168-0.674 0.138-0.19-0.029-0.34-0.075-0.45-0.139-0.111-0.064-0.204-0.152-0.281-0.264z" fill="#877eff" data-fill-palette-color="accent"></path><path d="M57.383 102.182l0.493-1.924c-0.471 0-0.931 0.02-1.379 0.058-0.448 0.038-0.911 0.104-1.387 0.198v0c-0.462 1.746-1.008 3.01-1.638 3.795v0c-0.233 0.299-0.481 0.506-0.744 0.621v0c-0.07 0.033-0.138 0.052-0.204 0.057-0.072 0.006-0.136-0.002-0.192-0.024-0.061-0.015-0.11-0.04-0.146-0.077v0c-0.086-0.072-0.132-0.151-0.139-0.237-0.007-0.086 0.014-0.151 0.063-0.194v0c0.569-0.487 1.115-1.672 1.638-3.556v0c-0.026 0.009-0.052 0.018-0.077 0.027-0.026 0.009-0.058 0.022-0.096 0.038-0.038 0.017-0.085 0.011-0.141-0.018-0.056-0.035-0.109-0.077-0.16-0.126v0c-0.111-0.13-0.133-0.231-0.066-0.303v0c0.128-0.13 0.376-0.264 0.742-0.402v0c0.373-1.625 0.541-2.768 0.504-3.429v0c-0.151 0.02-0.292 0.075-0.424 0.166v0l-0.414 0.284c-0.114 0.069-0.273 0.03-0.478-0.118v0c-0.205-0.142-0.3-0.286-0.286-0.434v0c0.008-0.22 0.296-0.427 0.864-0.621v0c0.2-0.064 0.36-0.1 0.478-0.111 0.119-0.01 0.238-0.017 0.357-0.02 0.113-0.003 0.219 0.001 0.32 0.012v0c0.39 0.06 0.638 0.204 0.744 0.435v0c0.049 0.102 0.079 0.229 0.092 0.38 0.013 0.152 0.012 0.331-0.004 0.538-0.009 0.2-0.033 0.434-0.07 0.703v0c-0.077 0.571-0.187 1.188-0.33 1.851v0c0.821-0.176 1.677-0.302 2.567-0.379v0l0.237-0.02 0.238-0.956c0.259-1.091 0.408-1.91 0.447-2.458v0c0.019-0.32 0.164-0.492 0.434-0.515v0c0.178-0.015 0.327 0.015 0.446 0.091v0c0.224 0.14 0.341 0.3 0.35 0.478 0.009 0.185-0.006 0.392-0.047 0.622-0.034 0.229-0.085 0.485-0.153 0.77-0.069 0.285-0.149 0.594-0.24 0.926v0l-0.273 0.999 0.139-0.001c0.053 0.002 0.107 0.004 0.16 0.006 0.053 0.002 0.1 0.008 0.141 0.018v0c0.082 0.026 0.126 0.076 0.132 0.148 0.006 0.072-0.01 0.154-0.049 0.243-0.039 0.083-0.096 0.164-0.168 0.243v0c-0.176 0.194-0.392 0.306-0.649 0.335v0c-0.357 1.259-0.564 2.03-0.619 2.313-0.055 0.284-0.079 0.475-0.071 0.574v0c0.018 0.211 0.109 0.309 0.274 0.295v0c0.152-0.013 0.275-0.05 0.369-0.111v0l0.199-0.117c0.038-0.023 0.077-0.036 0.117-0.04v0c0.079-0.007 0.122 0.029 0.128 0.109v0c0.029 0.336-0.145 0.636-0.52 0.901v0c-0.244 0.174-0.505 0.272-0.782 0.295v0c-0.389 0.033-0.674-0.115-0.854-0.445v0c-0.063-0.114-0.099-0.227-0.109-0.339v0c-0.021-0.244-0.006-0.497 0.045-0.76 0.058-0.257 0.121-0.522 0.191-0.794z" fill="#877eff" data-fill-palette-color="accent"></path><path d="M70.387 100.016v0c0.115 0.331 0.288 0.457 0.519 0.376v0c0.162-0.056 0.288-0.128 0.377-0.215 0.089-0.087 0.152-0.137 0.19-0.15v0c0.075-0.026 0.127 0.002 0.155 0.083v0c0.108 0.312 0.038 0.634-0.211 0.966v0c-0.261 0.357-0.591 0.538-0.988 0.543v0c-0.266 0.001-0.499-0.117-0.701-0.356v0c-0.106-0.124-0.179-0.243-0.218-0.355v0c-0.065-0.187-0.116-0.394-0.152-0.619v0c-0.099 0.805-0.353 1.425-0.761 1.861v0c-0.165 0.169-0.36 0.293-0.586 0.371-0.219 0.076-0.429 0.096-0.63 0.061-0.195-0.037-0.38-0.117-0.555-0.238v0c-0.348-0.257-0.602-0.645-0.761-1.164v0c-0.198-0.652-0.227-1.35-0.086-2.092v0c0.129-0.696 0.381-1.312 0.755-1.848v0c0.37-0.549 0.773-0.899 1.211-1.05 0.437-0.152 0.861-0.071 1.271 0.241v0c0.109-0.493 0.26-0.773 0.454-0.84v0c0.206-0.072 0.373-0.084 0.501-0.038v0c0.25 0.074 0.365 0.174 0.346 0.3v0c-0.262 2.171-0.326 3.488-0.192 3.953v0c0.018 0.071 0.038 0.141 0.062 0.21zM67.385 101.079v0c0.152 0.437 0.365 0.608 0.64 0.513v0c0.212-0.074 0.412-0.346 0.599-0.817v0c0.272-0.69 0.426-1.545 0.463-2.566v0c0.015-0.32 0.011-0.634-0.011-0.941v0c-0.097-0.239-0.263-0.385-0.498-0.437v0c-0.076-0.016-0.179-0.001-0.311 0.045-0.125 0.043-0.259 0.142-0.401 0.297-0.136 0.152-0.257 0.338-0.363 0.557-0.106 0.219-0.19 0.462-0.251 0.728-0.059 0.273-0.097 0.559-0.112 0.858v0c-0.026 0.632 0.056 1.22 0.245 1.763z" fill="#877eff" data-fill-palette-color="accent"></path><path d="M78.114 97.858c-0.093-0.011-0.177-0.031-0.252-0.062-0.078-0.036-0.135-0.075-0.169-0.116-0.029-0.045-0.051-0.105-0.068-0.18-0.023-0.072-0.043-0.165-0.061-0.279v0c-0.384-2.041-0.753-3.337-1.108-3.888v0c-0.111-0.149-0.234-0.223-0.367-0.224v0l-0.144-0.002c-0.046-0.01-0.089-0.041-0.13-0.093-0.036-0.056-0.047-0.123-0.035-0.202 0.007-0.075 0.031-0.154 0.073-0.235v0c0.089-0.167 0.209-0.299 0.358-0.396 0.145-0.093 0.269-0.15 0.375-0.17 0.099-0.017 0.198-0.017 0.294 0v0c0.198 0.038 0.337 0.121 0.42 0.249 0.082 0.128 0.152 0.268 0.21 0.419 0.049 0.149 0.095 0.301 0.139 0.454 0.038 0.157 0.075 0.306 0.111 0.448 0.027 0.14 0.053 0.241 0.077 0.304v0c0.044 0.129 0.077 0.206 0.101 0.23v0c0.035-0.117 0.041-0.211 0.018-0.283v0l-0.038-0.483c-0.065-1.019 0.023-1.78 0.266-2.282v0c0.065-0.144 0.181-0.269 0.348-0.377 0.161-0.104 0.33-0.129 0.505-0.077 0.175 0.052 0.309 0.144 0.4 0.274 0.089 0.139 0.153 0.263 0.192 0.372 0.035 0.103 0.054 0.213 0.058 0.328v0c0.009 0.246-0.062 0.417-0.213 0.514v0c-0.045 0.029-0.092 0.04-0.143 0.033v0l-0.168-0.022c-0.167-0.027-0.297-0.01-0.392 0.052-0.1 0.064-0.179 0.205-0.235 0.422-0.057 0.217-0.097 0.479-0.121 0.785v0c-0.074 0.999-0.005 2.016 0.205 3.053v0l0.156 0.702c0.03 0.169 0.043 0.299 0.038 0.389 0 0.086-0.041 0.156-0.125 0.21-0.083 0.054-0.175 0.089-0.274 0.105-0.101 0.026-0.202 0.035-0.301 0.028z" fill="#877eff" data-fill-palette-color="accent"></path><path d="M85.781 90.365v0c-0.159-0.159-0.297-0.32-0.415-0.484-0.122-0.168-0.239-0.341-0.351-0.519-0.112-0.187-0.218-0.376-0.316-0.568v0l-0.934-1.845c-0.763-1.482-1.416-2.583-1.959-3.303v0c-0.197-0.262-0.199-0.489-0.008-0.681v0c0.112-0.112 0.238-0.178 0.379-0.196v0c0.262-0.028 0.456 0.025 0.582 0.161 0.126 0.136 0.253 0.299 0.38 0.491 0.126 0.201 0.258 0.421 0.393 0.659 0.136 0.238 0.274 0.498 0.414 0.778v0c0.361 0.715 0.613 1.234 0.759 1.558v0l0.379 0.841c-0.136-0.603-0.195-1.045-0.176-1.326v0c0.028-0.561 0.203-1.003 0.525-1.326v0c0.472-0.473 1.036-0.541 1.691-0.204v0c0.225 0.121 0.463 0.308 0.716 0.56 0.253 0.252 0.468 0.542 0.646 0.87 0.173 0.323 0.304 0.655 0.394 0.996 0.089 0.341 0.136 0.683 0.141 1.024 0 0.346-0.03 0.671-0.091 0.976v0c-0.14 0.655-0.395 1.167-0.764 1.537v0c-0.374 0.374-0.783 0.555-1.227 0.541v0c-0.43-0.018-0.816-0.198-1.158-0.54zM87.583 89.894v0c0.252-0.253 0.395-0.625 0.428-1.116v0c0.056-0.748-0.172-1.513-0.682-2.294v0c-0.164-0.257-0.36-0.5-0.59-0.729-0.225-0.224-0.409-0.358-0.554-0.4-0.145-0.042-0.271-0.009-0.379 0.099-0.108 0.108-0.173 0.262-0.196 0.463-0.033 0.201-0.04 0.437-0.021 0.709 0.01 0.271 0.047 0.561 0.113 0.869 0.056 0.309 0.134 0.61 0.232 0.905v0c0.216 0.655 0.478 1.136 0.786 1.445 0.304 0.304 0.592 0.32 0.863 0.049z" fill="#877eff" data-fill-palette-color="accent"></path><path d="M94.824 81.56c-0.212 0.057-0.444 0.064-0.696 0.02-0.252-0.044-0.515-0.145-0.79-0.304-0.277-0.168-0.534-0.369-0.771-0.605-0.239-0.245-0.451-0.508-0.636-0.789-0.187-0.291-0.34-0.595-0.456-0.914-0.123-0.321-0.202-0.644-0.239-0.967v0c-0.077-0.704 0.038-1.31 0.346-1.82v0c0.407-0.674 0.981-0.953 1.723-0.837v0c0.533 0.09 1.056 0.395 1.569 0.913v0c0.478 0.474 0.842 1.038 1.089 1.69v0c0.251 0.646 0.324 1.274 0.219 1.883v0c-0.049 0.311-0.146 0.588-0.293 0.831-0.144 0.238-0.305 0.434-0.483 0.589-0.175 0.149-0.369 0.252-0.582 0.31zM93.002 79.184c0.185 0.243 0.388 0.47 0.609 0.681 0.221 0.211 0.444 0.384 0.671 0.521 0.236 0.135 0.436 0.205 0.601 0.212 0.171 0.011 0.301-0.058 0.391-0.204 0.092-0.153 0.132-0.334 0.119-0.543-0.016-0.203-0.067-0.427-0.151-0.671-0.088-0.238-0.209-0.486-0.364-0.741-0.146-0.258-0.313-0.506-0.502-0.743v0c-0.407-0.516-0.816-0.895-1.227-1.136v0c-0.362-0.219-0.636-0.284-0.821-0.194v0c-0.077 0.038-0.147 0.108-0.208 0.21-0.065 0.108-0.09 0.258-0.076 0.452 0.011 0.2 0.057 0.417 0.139 0.653 0.082 0.235 0.194 0.484 0.336 0.748 0.14 0.255 0.301 0.506 0.483 0.755z" fill="#877eff" data-fill-palette-color="accent"></path><path d="M100.221 71.315c-0.079 0.052-0.156 0.089-0.234 0.114-0.083 0.022-0.151 0.029-0.203 0.019-0.05-0.016-0.106-0.047-0.168-0.094-0.063-0.041-0.139-0.099-0.226-0.176v0c-1.602-1.323-2.715-2.082-3.339-2.279v0c-0.181-0.043-0.323-0.022-0.426 0.064v0l-0.111 0.09c-0.041 0.022-0.095 0.026-0.16 0.012-0.063-0.02-0.115-0.064-0.156-0.133-0.043-0.062-0.074-0.138-0.095-0.227v0c-0.039-0.186-0.031-0.363 0.023-0.534 0.052-0.164 0.111-0.287 0.179-0.37 0.066-0.076 0.141-0.139 0.226-0.189v0c0.176-0.097 0.337-0.123 0.482-0.077 0.145 0.046 0.288 0.108 0.429 0.187 0.133 0.084 0.265 0.17 0.397 0.26 0.129 0.096 0.253 0.187 0.372 0.273 0.11 0.09 0.195 0.152 0.254 0.184v0c0.116 0.071 0.191 0.109 0.225 0.113v0c-0.048-0.112-0.104-0.189-0.167-0.23v0l-0.339-0.345c-0.703-0.741-1.121-1.383-1.256-1.925v0c-0.042-0.152-0.034-0.323 0.026-0.512 0.058-0.183 0.171-0.31 0.339-0.382 0.168-0.072 0.329-0.087 0.483-0.046 0.158 0.05 0.286 0.104 0.385 0.163 0.093 0.057 0.178 0.129 0.255 0.215v0c0.164 0.183 0.219 0.36 0.165 0.531v0c-0.016 0.05-0.046 0.09-0.089 0.118v0l-0.142 0.09c-0.145 0.086-0.234 0.183-0.269 0.29-0.036 0.114-0.006 0.272 0.09 0.476 0.095 0.203 0.232 0.43 0.41 0.68v0c0.583 0.815 1.286 1.553 2.111 2.215v0l0.569 0.439c0.132 0.111 0.224 0.202 0.278 0.275 0.055 0.066 0.068 0.146 0.038 0.241-0.03 0.095-0.078 0.18-0.143 0.256-0.061 0.085-0.132 0.156-0.213 0.214z" fill="#877eff" data-fill-palette-color="accent"></path><path d="M1.145 53.863c0-1.894 1.536-3.43 3.43-3.431 1.894 0 3.43 1.536 3.43 3.431 0 1.894-1.536 3.43-3.43 3.43-1.894 0-3.43-1.536-3.43-3.43z" fill="#877eff" data-fill-palette-color="accent"></path><path d="M96.984 53.863c0-1.894 1.536-3.43 3.43-3.431 1.894 0 3.43 1.536 3.43 3.431 0 1.894-1.536 3.43-3.43 3.43-1.894 0-3.43-1.536-3.43-3.43z" fill="#877eff" data-fill-palette-color="accent"></path></g><g id="text-1"></g></svg></g></svg></g></svg></g><defs></defs></svg><rect width="395.52" height="77.65184791449141" fill="none" stroke="none" visibility="hidden"></rect></g></svg></g></svg>